<svg class="animated" id="freepik_stories-barcode" xmlns="http://www.w3.org/2000/svg" viewBox="0 0 500 500" version="1.1" xmlns:xlink="http://www.w3.org/1999/xlink" xmlns:svgjs="http://svgjs.com/svgjs"><style>svg#freepik_stories-barcode:not(.animated) .animable {opacity: 0;}svg#freepik_stories-barcode.animated #freepik--Barcode--inject-1 {animation: 1.5s Infinite  linear floating;animation-delay: 0s;}svg#freepik_stories-barcode.animated #freepik--Character--inject-1 {animation: 3s Infinite  linear wind;animation-delay: 0s;}            @keyframes floating {                0% {                    opacity: 1;                    transform: translateY(0px);                }                50% {                    transform: translateY(-10px);                }                100% {                    opacity: 1;                    transform: translateY(0px);                }            }                    @keyframes wind {                0% {                    transform: rotate( 0deg );                }                25% {                    transform: rotate( 1deg );                }                75% {                    transform: rotate( -1deg );                }            }        </style><g id="freepik--background-simple--inject-1" class="animable" style="transform-origin: 250.002px 256.18px;"><path d="M260.64,200.43c-23.34-8.89-27.44-39.36-75.5-62.73C138.53,115,77.85,146.14,56.93,191.44c-25.6,55.42,1.26,120.81,45.92,139.88,46.73,19.95,95.64-10.87,127.33-7.37,32.87,3.62,51.39,58,118.73,58.31,52.76.23,92.57-36.56,102.76-113.22,6.49-48.81-8.93-98.46-79.19-104C319.83,160.83,286.58,210.31,260.64,200.43Z" style="fill: rgb(186, 104, 200); transform-origin: 250.002px 256.18px;" id="elx2tuf25ac9f" class="animable"></path><g id="elp07q2jz527r"><path d="M260.64,200.43c-23.34-8.89-27.44-39.36-75.5-62.73C138.53,115,77.85,146.14,56.93,191.44c-25.6,55.42,1.26,120.81,45.92,139.88,46.73,19.95,95.64-10.87,127.33-7.37,32.87,3.62,51.39,58,118.73,58.31,52.76.23,92.57-36.56,102.76-113.22,6.49-48.81-8.93-98.46-79.19-104C319.83,160.83,286.58,210.31,260.64,200.43Z" style="fill: rgb(255, 255, 255); opacity: 0.9; transform-origin: 250.002px 256.18px;" class="animable"></path></g></g><g id="freepik--Shadow--inject-1" class="animable" style="transform-origin: 250px 412.39px;"><ellipse id="freepik--path--inject-1" cx="250" cy="412.39" rx="193.89" ry="11.32" style="fill: rgb(245, 245, 245); transform-origin: 250px 412.39px;" class="animable"></ellipse></g><g id="freepik--Barcode--inject-1" class="animable" style="transform-origin: 304.565px 118.237px;"><g id="freepik--barcode--inject-1" class="animable" style="transform-origin: 304.565px 118.237px;"><rect x="227.94" y="73.41" width="3.03" height="75.87" style="fill: rgb(38, 50, 56); transform-origin: 229.455px 111.345px;" id="el93o5l45bd2t" class="animable"></rect><rect x="232.49" y="73.41" width="1.52" height="75.87" style="fill: rgb(38, 50, 56); transform-origin: 233.25px 111.345px;" id="elw93gtmwlws" class="animable"></rect><rect x="237.05" y="73.41" width="1.52" height="75.87" style="fill: rgb(38, 50, 56); transform-origin: 237.81px 111.345px;" id="elc6indubbdyc" class="animable"></rect><rect x="244.63" y="73.41" width="3.03" height="75.87" style="fill: rgb(38, 50, 56); transform-origin: 246.145px 111.345px;" id="elq30z7lisswc" class="animable"></rect><rect x="250.7" y="73.41" width="1.52" height="75.87" style="fill: rgb(38, 50, 56); transform-origin: 251.46px 111.345px;" id="elt1tixisrph" class="animable"></rect><rect x="253.74" y="73.41" width="4.55" height="75.87" style="fill: rgb(38, 50, 56); transform-origin: 256.015px 111.345px;" id="elh95wzf8u0lc" class="animable"></rect><rect x="261.32" y="73.41" width="1.52" height="75.87" style="fill: rgb(38, 50, 56); transform-origin: 262.08px 111.345px;" id="elgrw5oi3edv" class="animable"></rect><rect x="264.36" y="73.41" width="1.52" height="75.87" style="fill: rgb(38, 50, 56); transform-origin: 265.12px 111.345px;" id="elrvpfi6vwffh" class="animable"></rect><rect x="270.43" y="73.41" width="3.03" height="75.87" style="fill: rgb(38, 50, 56); transform-origin: 271.945px 111.345px;" id="elwotm9jlwd1q" class="animable"></rect><rect x="278.01" y="73.41" width="3.03" height="75.87" style="fill: rgb(38, 50, 56); transform-origin: 279.525px 111.345px;" id="elj6x92m691n" class="animable"></rect><rect x="282.57" y="73.41" width="4.55" height="75.87" style="fill: rgb(38, 50, 56); transform-origin: 284.845px 111.345px;" id="eln9q8oplqvyh" class="animable"></rect><rect x="290.15" y="73.41" width="1.52" height="75.87" style="fill: rgb(38, 50, 56); transform-origin: 290.91px 111.345px;" id="eldqd3hh6wd8l" class="animable"></rect><rect x="294.7" y="73.41" width="3.03" height="75.87" style="fill: rgb(38, 50, 56); transform-origin: 296.215px 111.345px;" id="elmh1o2s13ugh" class="animable"></rect><rect x="300.77" y="73.41" width="4.55" height="75.87" style="fill: rgb(38, 50, 56); transform-origin: 303.045px 111.345px;" id="el4a4b988nxf5" class="animable"></rect><rect x="306.84" y="73.41" width="1.52" height="75.87" style="fill: rgb(38, 50, 56); transform-origin: 307.6px 111.345px;" id="el67co7rgkrf5" class="animable"></rect><rect x="311.39" y="73.41" width="4.55" height="75.87" style="fill: rgb(38, 50, 56); transform-origin: 313.665px 111.345px;" id="el0355mu4ir43v" class="animable"></rect><rect x="317.46" y="73.41" width="3.03" height="75.87" style="fill: rgb(38, 50, 56); transform-origin: 318.975px 111.345px;" id="elytevir0ie8l" class="animable"></rect><rect x="322.02" y="73.41" width="4.55" height="75.87" style="fill: rgb(38, 50, 56); transform-origin: 324.295px 111.345px;" id="ell4ul14omb" class="animable"></rect><rect x="328.09" y="73.41" width="1.52" height="75.87" style="fill: rgb(38, 50, 56); transform-origin: 328.85px 111.345px;" id="elepufap07j1e" class="animable"></rect><rect x="334.15" y="73.41" width="1.52" height="75.87" style="fill: rgb(38, 50, 56); transform-origin: 334.91px 111.345px;" id="elbvqfd46r3q7" class="animable"></rect><rect x="337.19" y="73.41" width="3.03" height="75.87" style="fill: rgb(38, 50, 56); transform-origin: 338.705px 111.345px;" id="els468x357ngk" class="animable"></rect><rect x="344.78" y="73.41" width="3.03" height="75.87" style="fill: rgb(38, 50, 56); transform-origin: 346.295px 111.345px;" id="eljxcel439c8" class="animable"></rect><rect x="352.36" y="73.41" width="1.52" height="75.87" style="fill: rgb(38, 50, 56); transform-origin: 353.12px 111.345px;" id="elsdediej348n" class="animable"></rect><rect x="358.43" y="73.41" width="1.52" height="75.87" style="fill: rgb(38, 50, 56); transform-origin: 359.19px 111.345px;" id="elyibc9k2m5jg" class="animable"></rect><rect x="361.47" y="73.41" width="3.03" height="75.87" style="fill: rgb(38, 50, 56); transform-origin: 362.985px 111.345px;" id="elq92kxxyup4l" class="animable"></rect><rect x="369.05" y="73.41" width="4.55" height="75.87" style="fill: rgb(38, 50, 56); transform-origin: 371.325px 111.345px;" id="el5jy9k1xqy26" class="animable"></rect><rect x="375.12" y="73.41" width="1.52" height="75.87" style="fill: rgb(38, 50, 56); transform-origin: 375.88px 111.345px;" id="elxztx6yr7wfj" class="animable"></rect><rect x="378.16" y="73.41" width="3.03" height="75.87" style="fill: rgb(38, 50, 56); transform-origin: 379.675px 111.345px;" id="elqwqmpt3xlaj" class="animable"></rect><path d="M289.53,160.38c0,1.43-1.08,2.67-3.36,2.67a5.33,5.33,0,0,1-3.19-1l.68-1.23a4,4,0,0,0,2.49.84c1.13,0,1.79-.5,1.79-1.29s-.56-1.26-1.84-1.26h-.78v-1.08l1.93-2.29h-3.86v-1.33h5.79v1.06l-2.06,2.45A2.43,2.43,0,0,1,289.53,160.38Z" style="fill: rgb(38, 50, 56); transform-origin: 286.255px 158.73px;" id="el5i7a00ghmm9" class="animable"></path><path d="M296.72,161h-4.25l-.84,2H290l3.82-8.5h1.55l3.84,8.5h-1.65Zm-.52-1.24L294.6,156,293,159.72Z" style="fill: rgb(38, 50, 56); transform-origin: 294.605px 158.75px;" id="eluytj0mzr80s" class="animable"></path><path d="M305.87,160.32c0,1.49-1.08,2.73-3.36,2.73a5.31,5.31,0,0,1-3.19-1l.67-1.23a4,4,0,0,0,2.5.84c1.12,0,1.79-.5,1.79-1.3s-.52-1.32-2.28-1.32H300l.44-4.63h5v1.33h-3.65l-.18,2h.81C304.86,157.72,305.87,158.81,305.87,160.32Z" style="fill: rgb(38, 50, 56); transform-origin: 302.595px 158.73px;" id="ely8zjhz03kk" class="animable"></path><path d="M313.57,160.29a2.83,2.83,0,0,1-3.11,2.76c-2.32,0-3.68-1.49-3.68-4.22,0-2.91,1.7-4.52,4.17-4.52a4.31,4.31,0,0,1,2.23.55l-.58,1.19a2.94,2.94,0,0,0-1.62-.41c-1.6,0-2.61,1-2.61,2.92h0a2.92,2.92,0,0,1,2.27-.88A2.66,2.66,0,0,1,313.57,160.29Zm-1.53.08c0-.89-.67-1.45-1.7-1.45a1.54,1.54,0,0,0-1.72,1.46c0,.8.63,1.43,1.76,1.43A1.47,1.47,0,0,0,312,160.37Z" style="fill: rgb(38, 50, 56); transform-origin: 310.175px 158.686px;" id="eleln074qrdgw" class="animable"></path><path d="M320.74,154.43v1.06l-3.3,7.44h-1.69l3.19-7.16h-3.33v1.44h-1.47v-2.78Z" style="fill: rgb(38, 50, 56); transform-origin: 317.44px 158.68px;" id="el6xa7barrt2e" class="animable"></path><path d="M329.87,160.62c0,1.46-1.14,2.31-3.33,2.31h-4.22v-8.5h4c2,0,3.13.87,3.13,2.21a2,2,0,0,1-1.09,1.87A2.09,2.09,0,0,1,329.87,160.62Zm-6-5V158h2.23c1.09,0,1.71-.38,1.71-1.16s-.62-1.18-1.71-1.18Zm4.38,4.79c0-.84-.64-1.22-1.83-1.22H323.9v2.45h2.55C327.64,161.69,328.28,161.31,328.28,160.46Z" style="fill: rgb(38, 50, 56); transform-origin: 326.096px 158.68px;" id="eljugkio2x56l" class="animable"></path></g></g><g id="freepik--Character--inject-1" class="animable" style="transform-origin: 218.921px 265.869px;"><polygon points="237.46 409.02 229.24 408.55 228.02 389.39 236.23 389.87 237.46 409.02" style="fill: rgb(206, 122, 99); transform-origin: 232.74px 399.205px;" id="elo0wyw161qp8" class="animable"></polygon><path d="M238.48,404.13h-10a.72.72,0,0,0-.7.56l-1.7,7.31a1.19,1.19,0,0,0,1.19,1.46c3.23,0,5.58-.24,9.65-.24,2.5,0,10,.26,13.49.26s3.94-3.41,2.53-3.72c-6.33-1.39-11.09-3.3-13.1-5.13A2,2,0,0,0,238.48,404.13Z" style="fill: rgb(38, 50, 56); transform-origin: 239.868px 408.805px;" id="elr0hvpgi491" class="animable"></path><g id="el0n2l0e1n1d2"><polygon points="236.23 389.88 228.01 389.4 228.65 399.27 236.87 399.35 236.23 389.88" style="opacity: 0.2; transform-origin: 232.44px 394.375px;" class="animable"></polygon></g><path d="M239,405.27a.2.2,0,0,1-.15-.16.21.21,0,0,1,.1-.2c.3-.18,3-1.81,3.87-1.35a.64.64,0,0,1,.33.56,1.22,1.22,0,0,1-.41,1,2.55,2.55,0,0,1-1.59.41A9.56,9.56,0,0,1,239,405.27Zm.57-.27a4,4,0,0,0,2.92-.15.8.8,0,0,0,.27-.71.25.25,0,0,0-.12-.23.58.58,0,0,0-.25-.05A7.91,7.91,0,0,0,239.61,405Z" style="fill: rgb(186, 104, 200); transform-origin: 241.001px 404.508px;" id="elmis0ez6fpdn" class="animable"></path><path d="M239,405.24a.2.2,0,0,1-.09-.18c0-.1.23-2.47,1.2-3.25a1.07,1.07,0,0,1,.83-.25.63.63,0,0,1,.61.51c.17.92-1.5,2.72-2.35,3.18a.15.15,0,0,1-.09,0A.2.2,0,0,1,239,405.24Zm1.35-3.13a4.71,4.71,0,0,0-1,2.58c.86-.64,1.92-2,1.82-2.55,0-.05,0-.16-.28-.19h-.09A.72.72,0,0,0,240.33,402.11Z" style="fill: rgb(186, 104, 200); transform-origin: 240.236px 403.404px;" id="elrxry1qlpxo" class="animable"></path><polygon points="194.86 409.71 186.87 407.76 189.12 388.7 197.11 390.65 194.86 409.71" style="fill: rgb(206, 122, 99); transform-origin: 191.99px 399.205px;" id="elz4v77rylq3c" class="animable"></polygon><path d="M195.94,404.13h-10a.73.73,0,0,0-.71.56L183.5,412a1.2,1.2,0,0,0,1.19,1.46c3.23,0,5.59-.24,9.65-.24,2.5,0,10,.26,13.49.26s3.94-3.41,2.53-3.72c-6.33-1.39-11.08-3.3-13.09-5.13A2,2,0,0,0,195.94,404.13Z" style="fill: rgb(38, 50, 56); transform-origin: 197.289px 408.805px;" id="ell5nat2hjcsn" class="animable"></path><g id="elke0kp94nyqh"><polygon points="197.11 390.66 189.12 388.71 187.82 399.68 196.07 399.68 197.11 390.66" style="opacity: 0.2; transform-origin: 192.465px 394.195px;" class="animable"></polygon></g><path d="M196.49,405.27a.19.19,0,0,1-.14-.16.2.2,0,0,1,.09-.2c.3-.18,3-1.81,3.88-1.35a.61.61,0,0,1,.32.56,1.17,1.17,0,0,1-.41,1,2.53,2.53,0,0,1-1.59.41A9.56,9.56,0,0,1,196.49,405.27Zm.57-.27a4,4,0,0,0,2.92-.15.8.8,0,0,0,.27-.71c0-.15-.06-.2-.12-.23a.58.58,0,0,0-.25-.05A7.91,7.91,0,0,0,197.06,405Z" style="fill: rgb(186, 104, 200); transform-origin: 198.496px 404.508px;" id="elrbpegpid9o" class="animable"></path><path d="M196.43,405.24a.18.18,0,0,1-.08-.18c0-.1.23-2.47,1.19-3.25a1.07,1.07,0,0,1,.83-.25.63.63,0,0,1,.62.51c.16.92-1.5,2.72-2.36,3.18a.15.15,0,0,1-.09,0A.2.2,0,0,1,196.43,405.24Zm1.35-3.13a4.7,4.7,0,0,0-1,2.58c.85-.64,1.91-2,1.81-2.55,0-.05,0-.16-.28-.19h-.09A.72.72,0,0,0,197.78,402.11Z" style="fill: rgb(186, 104, 200); transform-origin: 197.674px 403.404px;" id="elymx8zqbpoek" class="animable"></path><path d="M219.67,163.75a6.76,6.76,0,0,1,6.8,6.21c.16,1.86.31,3.59.4,4.28.41,3.57,3.7,18.21,4.33,21.77l.88,4.87c.07.34,8.37-.4,8.37-.4l3.21,3.76a26.8,26.8,0,0,1-2.14,2.23,22.19,22.19,0,0,1-2.39,2,19,19,0,0,1-2.82,1.75,12.37,12.37,0,0,1-3.7,1.23,8.83,8.83,0,0,1-2.48,0,8,8,0,0,1-2.83-1,8.18,8.18,0,0,1-2.27-2,10.58,10.58,0,0,1-1.67-3.29l-.13-.43-.09-.34-.39-1.39c-.27-.93-.51-1.86-.74-2.8-.92-3.74-4.47-20.9-5-24.73-.27-1.91-.52-3.84-.68-5.77-.08-1-.15-2-.21-2.93s-.09-1.92-.1-3.06Z" style="fill: rgb(186, 104, 200); transform-origin: 229.84px 187.624px;" id="elu8mdg2f005l" class="animable"></path><g id="elbtx4vdq2hf"><path d="M219.67,163.75a6.76,6.76,0,0,1,6.8,6.21c.16,1.86.31,3.59.4,4.28.41,3.57,3.7,18.21,4.33,21.77l.88,4.87c.07.34,8.37-.4,8.37-.4l3.21,3.76a26.8,26.8,0,0,1-2.14,2.23,22.19,22.19,0,0,1-2.39,2,19,19,0,0,1-2.82,1.75,12.37,12.37,0,0,1-3.7,1.23,8.83,8.83,0,0,1-2.48,0,8,8,0,0,1-2.83-1,8.18,8.18,0,0,1-2.27-2,10.58,10.58,0,0,1-1.67-3.29l-.13-.43-.09-.34-.39-1.39c-.27-.93-.51-1.86-.74-2.8-.92-3.74-4.47-20.9-5-24.73-.27-1.91-.52-3.84-.68-5.77-.08-1-.15-2-.21-2.93s-.09-1.92-.1-3.06Z" style="fill: rgb(255, 255, 255); opacity: 0.6; transform-origin: 229.84px 187.624px;" class="animable"></path></g><path d="M237.49,200.68s-1.9,4.79,2.81,6.84l4.12-2.2L242,200Z" style="fill: rgb(186, 104, 200); transform-origin: 240.766px 203.76px;" id="elx3dfjn0cvg" class="animable"></path><g id="elqfzhqwv0cd"><path d="M237.49,200.68s-1.9,4.79,2.81,6.84l4.12-2.2L242,200Z" style="fill: rgb(255, 255, 255); opacity: 0.8; transform-origin: 240.766px 203.76px;" class="animable"></path></g><path d="M241.67,200.23l4.09-3.54,3.92,6.86a18.44,18.44,0,0,1-5.72,1.86c-1.62.17-2.29-1.27-2.81-2.62a2.52,2.52,0,0,1,.52-2.56Z" style="fill: rgb(206, 122, 99); transform-origin: 245.341px 201.057px;" id="el7au69ylzfn5" class="animable"></path><polygon points="251.24 196.49 254.22 200.53 249.68 203.55 245.76 196.69 251.24 196.49" style="fill: rgb(206, 122, 99); transform-origin: 249.99px 200.02px;" id="elolcsrwjrar" class="animable"></polygon><g id="elcmg98l4e167"><path d="M232.08,200.88l-5.28,1.18s3.07-.51,3.85-7.21c0-.35,0-1.48.11-1.1C231.5,197.68,232.08,200.88,232.08,200.88Z" style="opacity: 0.1; transform-origin: 229.44px 197.866px;" class="animable"></path></g><rect x="231.81" y="175.56" width="24.97" height="24.97" style="fill: rgb(38, 50, 56); transform-origin: 244.295px 188.045px;" id="elzwx53scul2g" class="animable"></rect><g id="elgp7hys02wzo"><rect x="231.81" y="175.56" width="24.97" height="24.97" style="fill: rgb(255, 255, 255); opacity: 0.7; transform-origin: 244.295px 188.045px;" class="animable"></rect></g><g id="el637z63woh0m"><rect x="256.78" y="175.56" width="11.13" height="24.97" style="fill: rgb(38, 50, 56); transform-origin: 262.345px 188.045px; transform: rotate(180deg);" class="animable"></rect></g><g id="elykuzkvlbtnr"><rect x="256.78" y="175.56" width="11.13" height="24.97" style="fill: rgb(255, 255, 255); opacity: 0.6; transform-origin: 262.345px 188.045px; transform: rotate(180deg);" class="animable"></rect></g><g id="elqapzq9x04mo"><rect x="233.02" y="192.15" width="10.56" height="6.98" style="fill: rgb(255, 255, 255); opacity: 0.7; transform-origin: 238.3px 195.64px;" class="animable"></rect></g><rect x="235.17" y="193.65" width="0.76" height="3.97" style="fill: rgb(38, 50, 56); transform-origin: 235.55px 195.635px;" id="ela74j1jzd07" class="animable"></rect><rect x="236.52" y="193.65" width="0.38" height="3.97" style="fill: rgb(38, 50, 56); transform-origin: 236.71px 195.635px;" id="elmi9m200lup" class="animable"></rect><rect x="237.28" y="193.65" width="1.05" height="3.97" style="fill: rgb(38, 50, 56); transform-origin: 237.805px 195.635px;" id="eltzixme0sk9" class="animable"></rect><rect x="238.83" y="193.65" width="0.38" height="3.97" style="fill: rgb(38, 50, 56); transform-origin: 239.02px 195.635px;" id="el555gwlodjve" class="animable"></rect><rect x="239.8" y="193.65" width="0.38" height="3.97" style="fill: rgb(38, 50, 56); transform-origin: 239.99px 195.635px;" id="elys1dqu76sr8" class="animable"></rect><rect x="240.67" y="193.65" width="0.76" height="3.97" style="fill: rgb(38, 50, 56); transform-origin: 241.05px 195.635px;" id="el1avavq0y36nh" class="animable"></rect><rect x="258.05" y="171.27" width="11.13" height="5.55" style="fill: rgb(38, 50, 56); transform-origin: 263.615px 174.045px;" id="elrxhx0bam8g" class="animable"></rect><g id="el1cb4kic50i0j"><rect x="258.05" y="171.27" width="11.13" height="5.55" style="fill: rgb(255, 255, 255); opacity: 0.4; transform-origin: 263.615px 174.045px;" class="animable"></rect></g><rect x="230.54" y="171.27" width="27.51" height="5.55" style="fill: rgb(38, 50, 56); transform-origin: 244.295px 174.045px;" id="elx6etc10yj8r" class="animable"></rect><g id="elrymbmtg9i4e"><rect x="230.54" y="171.27" width="27.51" height="5.55" style="fill: rgb(255, 255, 255); opacity: 0.5; transform-origin: 244.295px 174.045px;" class="animable"></rect></g><rect x="261.85" y="171.27" width="3.52" height="8.09" style="fill: rgb(186, 104, 200); transform-origin: 263.61px 175.315px;" id="el4sj8lyz1f6d" class="animable"></rect><rect x="261.85" y="192.44" width="3.52" height="8.09" style="fill: rgb(186, 104, 200); transform-origin: 263.61px 196.485px;" id="elfsvn9gkcny8" class="animable"></rect><g id="el0esuhy2eh75r"><g style="opacity: 0.3; transform-origin: 263.61px 185.9px;" class="animable"><rect x="261.85" y="171.27" width="3.52" height="8.09" style="fill: rgb(255, 255, 255); transform-origin: 263.61px 175.315px;" id="eldqsf294xwnu" class="animable"></rect><rect x="261.85" y="192.44" width="3.52" height="8.09" style="fill: rgb(255, 255, 255); transform-origin: 263.61px 196.485px;" id="elbn2nlzkhd09" class="animable"></rect></g></g><path d="M198.86,227.73,218,320.66l8.17,76.7,13-.52s.76-39.37-3.06-80.52c-3.44-37.15-10-78-11.45-90.35l-6.58-6.19-9.61,1.57Z" style="fill: rgb(38, 50, 56); transform-origin: 219.046px 308.57px;" id="elhtx1644rgpw" class="animable"></path><path d="M185.42,227.93l3.63,101.52-3.72,67.67,14.85.72s4.85-32.21,7.32-70.62c2.48-38.73,2.58-80.92,3.18-94.17l-5.77-9.89h-9.35Z" style="fill: rgb(38, 50, 56); transform-origin: 198.005px 310.5px;" id="elruracc51s0i" class="animable"></path><path d="M224.05,214.13c-.46-3.46-.54-6.84-.66-10.08-1.21-32.19-1.25-32.88-1.74-38.5a2.49,2.49,0,0,0-1.74-2.15c-19.72-6.63-27.76-3.39-41.91.17a2.38,2.38,0,0,0-1.66,2.6c1,9.45,4,32.57,4.68,48,.1,2.26.06,7.7,0,10.71a2.47,2.47,0,0,0,2.06,2.47c5,.84,17.55,2.44,21.38-2a2.43,2.43,0,0,1,3.37-.24c1.57,1.28,4.13,2.43,8.22,2.14,3.89-.27,6.45-.61,8.08-.89a2.47,2.47,0,0,0,2-3.06C225.41,220.5,224.32,216.12,224.05,214.13Z" style="fill: rgb(186, 104, 200); transform-origin: 201.264px 193.947px;" id="elvj63z95i5db" class="animable"></path><path d="M206.64,160.67l-5.44,3.58-5.08.22-3-2.61a52.57,52.57,0,0,0-.47-9.12,22.7,22.7,0,0,0-1.46-6h.52l5,.1,5.57.11s-.22,2.07-.22,4.63v0a32.82,32.82,0,0,0,.2,3.8,13.64,13.64,0,0,0,.78,3.47C203.87,160.82,206.52,160.66,206.64,160.67Z" style="fill: rgb(206, 122, 99); transform-origin: 198.915px 155.605px;" id="el3snelcfuhsr" class="animable"></path><path d="M207.5,160.14c0,.69-.72,18.34-2.18,43.41h0l-14.65-43.22.72-.15,8.29,4.11h2.51l4.68-4.27h.07Z" style="fill: rgb(186, 104, 200); transform-origin: 199.085px 181.785px;" id="elo6tps0dvihs" class="animable"></path><g id="elujw2tuse24"><path d="M207.5,160.14c0,.69-.72,18.34-2.18,43.41h0l-14.65-43.22.72-.15,8.29,4.11h2.51l4.68-4.27h.07Z" style="fill: rgb(255, 255, 255); opacity: 0.5; transform-origin: 199.085px 181.785px;" class="animable"></path></g><polygon points="192.59 159.91 201.34 164.31 197.67 169.17 190.66 160.34 192.59 159.91" style="fill: rgb(186, 104, 200); transform-origin: 196px 164.54px;" id="eld3zrcvjzyjs" class="animable"></polygon><polygon points="207.5 160.12 207.5 160.14 204.6 169.18 201.13 164.59 200.92 164.31 201.06 164.17 205.72 159.84 206.85 160.02 206.92 160.03 207.5 160.12" style="fill: rgb(186, 104, 200); transform-origin: 204.21px 164.51px;" id="eltqjopswf1u" class="animable"></polygon><g id="el938saxg13r"><g style="opacity: 0.8; transform-origin: 196px 164.54px;" class="animable"><polygon points="192.59 159.91 201.34 164.31 197.67 169.17 190.66 160.34 192.59 159.91" style="fill: rgb(255, 255, 255); transform-origin: 196px 164.54px;" id="el8sz029chec" class="animable"></polygon></g></g><g id="el0zdqeuksyzr"><g style="opacity: 0.8; transform-origin: 204.21px 164.51px;" class="animable"><polygon points="207.5 160.12 207.5 160.14 204.6 169.18 201.13 164.59 200.92 164.31 201.06 164.17 205.72 159.84 206.85 160.02 206.92 160.03 207.5 160.12" style="fill: rgb(255, 255, 255); transform-origin: 204.21px 164.51px;" id="elb5nb6xs30so" class="animable"></polygon></g></g><path d="M202.34,171.87a1,1,0,1,1-1.06-.94A1,1,0,0,1,202.34,171.87Z" style="fill: rgb(255, 255, 255); transform-origin: 201.342px 171.928px;" id="elp2q953v9pt" class="animable"></path><path d="M204.1,185.08a1,1,0,0,1-.94,1,1,1,0,0,1-1.06-.94,1,1,0,0,1,.94-1.05A1,1,0,0,1,204.1,185.08Z" style="fill: rgb(255, 255, 255); transform-origin: 203.099px 185.085px;" id="el54j6i8pfh9n" class="animable"></path><g id="elygz6ndckbe"><path d="M202.32,155.4a19.51,19.51,0,0,1-6.12-2.13,9,9,0,0,1-4.46-6.53,8.54,8.54,0,0,1-.12-1.43l5.15,1.53,4.88,1.45.47,3.29v0A32.82,32.82,0,0,0,202.32,155.4Z" style="opacity: 0.2; transform-origin: 196.97px 150.355px;" class="animable"></path></g><path d="M188.06,135.79c.79,7.35,1,10.46,4.86,14.06,5.86,5.42,14.7,2.84,16.12-4.59,1.27-6.68-.25-17.6-7.59-20.15a10.07,10.07,0,0,0-13.39,10.68Z" style="fill: rgb(206, 122, 99); transform-origin: 198.716px 138.631px;" id="el4fz7lth3nmd" class="animable"></path><path d="M200.09,137.48c.1.59.49,1,.87,1s.63-.6.54-1.19-.48-1-.87-1S200,136.91,200.09,137.48Z" style="fill: rgb(38, 50, 56); transform-origin: 200.795px 137.385px;" id="el1pr31mo9svq" class="animable"></path><path d="M206.79,136.46c.09.6.48,1,.87,1s.63-.6.54-1.19-.49-1-.87-1S206.7,135.86,206.79,136.46Z" style="fill: rgb(38, 50, 56); transform-origin: 207.495px 136.365px;" id="el7b5ha5w30hg" class="animable"></path><path d="M204.21,137.15a28.39,28.39,0,0,0,3.38,4.79,2.68,2.68,0,0,1-2.12.5Z" style="fill: rgb(186, 77, 60); transform-origin: 205.9px 139.818px;" id="elda9xsap4gd" class="animable"></path><path d="M197.08,136.27a.34.34,0,0,0,.35-.22,4.17,4.17,0,0,1,2.62-2.06.36.36,0,0,0,.27-.43.36.36,0,0,0-.42-.26h0a4.8,4.8,0,0,0-3.12,2.49.35.35,0,0,0,.21.45h0A.12.12,0,0,0,197.08,136.27Z" style="fill: rgb(38, 50, 56); transform-origin: 198.544px 134.782px;" id="elyl9trpw4eu" class="animable"></path><path d="M208.37,133.33a.34.34,0,0,0,.32-.16.35.35,0,0,0-.1-.49,3.45,3.45,0,0,0-3.23-.41.34.34,0,0,0-.19.43l0,0a.35.35,0,0,0,.45.18h0a2.8,2.8,0,0,1,2.52.36A.36.36,0,0,0,208.37,133.33Z" style="fill: rgb(38, 50, 56); transform-origin: 206.95px 132.687px;" id="elv7roc54nfy" class="animable"></path><path d="M203.87,145.07a5.42,5.42,0,0,1-3.91-1.61.19.19,0,0,1,0-.26.18.18,0,0,1,.26,0,5.13,5.13,0,0,0,4.31,1.44.2.2,0,0,1,.21.16.18.18,0,0,1-.17.2A6.09,6.09,0,0,1,203.87,145.07Z" style="fill: rgb(38, 50, 56); transform-origin: 202.325px 144.107px;" id="elh4h7l59k97v" class="animable"></path><path d="M192.05,149a13,13,0,0,1,.55-15.7c2.1-2.77.09-3.11.09-3.11,15.78-.48,15-5.54,12.91-8.72a7.08,7.08,0,0,0-5.4-3.21h-.08a3.27,3.27,0,0,0-3.4,3v.06s-13.62-2.07-12,14.49C185.33,142.33,192.05,149,192.05,149Z" style="fill: rgb(38, 50, 56); transform-origin: 195.651px 133.628px;" id="elp5yy3mviyk" class="animable"></path><path d="M186.32,141.55a5.32,5.32,0,0,0,2.82,2.89c1.72.7,2.81-.78,2.52-2.53-.27-1.57-1.48-3.83-3.29-3.83a2.4,2.4,0,0,0-2.31,2.46A2.36,2.36,0,0,0,186.32,141.55Z" style="fill: rgb(206, 122, 99); transform-origin: 188.883px 141.349px;" id="el0ja6xz2jfgqm" class="animable"></path><g id="elsm0vwto8x9"><path d="M219.89,181.38l.28,5.39-8.9.46-.28-5.39,3.95-.21c-.28-.19-.26-.6-.28-1,0-.66.15-1.16.67-1.19s.72.52.76,1.18c0,.43.11.77-.15,1Z" style="fill: rgb(255, 255, 255); opacity: 0.6; transform-origin: 215.58px 183.334px;" class="animable"></path></g><g id="elhw44gp7vmes"><rect x="211.58" y="182.08" width="7.9" height="4.31" rx="0.65" style="fill: rgb(255, 255, 255); transform-origin: 215.53px 184.235px; transform: rotate(-2.99deg);" class="animable"></rect></g><path d="M215.7,180.16a.35.35,0,0,1-.7,0,.36.36,0,0,1,.33-.37A.36.36,0,0,1,215.7,180.16Z" style="fill: rgb(38, 50, 56); transform-origin: 215.35px 180.149px;" id="elqqd6xcob87" class="animable"></path><g id="elv5bs3j13an"><polygon points="180.43 185.83 180.02 201.06 177.84 179.89 180.43 185.83" style="opacity: 0.2; transform-origin: 179.135px 190.475px;" class="animable"></polygon></g><polygon points="216.1 200.02 215.4 211.16 216.66 212.07 209.76 213.18 212.59 199.8 216.1 200.02" style="fill: rgb(255, 255, 255); transform-origin: 213.21px 206.49px;" id="el554d1wtzsa" class="animable"></polygon><g id="elkcumb6kgr9"><path d="M212.59,199.8l3.51.22-.12,1.92a27.65,27.65,0,0,1-3.87.16Z" style="opacity: 0.5; transform-origin: 214.105px 200.956px;" class="animable"></path></g><path d="M216.15,193.73a51,51,0,0,1,7.65-.34l.94,5.83a54.84,54.84,0,0,1-7.48,1.4c-5.67.91-10.52.11-10.82-1.79S210.48,194.65,216.15,193.73Z" style="fill: rgb(38, 50, 56); transform-origin: 215.583px 197.181px;" id="el4t74aa3iu9x" class="animable"></path><path d="M216.15,193.73a51,51,0,0,1,7.65-.34l.94,5.83a54.84,54.84,0,0,1-7.48,1.4c-5.67.91-10.52.11-10.82-1.79S210.48,194.65,216.15,193.73Z" style="fill: rgb(255, 255, 255); transform-origin: 215.583px 197.181px;" id="elhbjk7ik45os" class="animable"></path><path d="M222.86,193.37c.32,0,.64,0,.94,0l.94,5.83c-.28.11-.58.21-.89.31Z" style="fill: rgb(38, 50, 56); transform-origin: 223.8px 196.44px;" id="elw5d4wfxb00g" class="animable"></path><path d="M204.76,204.92s4.53-1.21,6.57-1.8c5.72-1.63,5.94,1.15,6.08,2.1a4.48,4.48,0,0,1-2,4.68c-1.78,1.14-10.6-.21-10.6-.21Z" style="fill: rgb(206, 122, 99); transform-origin: 211.13px 206.488px;" id="elcepn0ntaq9b" class="animable"></path><path d="M198.92,204.9a20.5,20.5,0,0,1,6.83-.88s-1.5,3.83.74,6.67l-6.91.9Z" style="fill: rgb(186, 104, 200); transform-origin: 202.705px 207.797px;" id="elgt1hazuvr6h" class="animable"></path><g id="el1pcf3ieq341"><path d="M198.92,204.9a20.5,20.5,0,0,1,6.83-.88s-1.5,3.83.74,6.67l-6.91.9Z" style="fill: rgb(255, 255, 255); opacity: 0.8; transform-origin: 202.705px 207.797px;" class="animable"></path></g><path d="M178.09,164s-9.75,0-9.42,32.5c.22,21.38,7.66,17.49,17.21,16.88l16.81-1.57s-1.73-4.6-.3-8.29c0,0-8.28,1.63-21.83,0,0,0-1.92-15.89-.25-19.12C180.31,184.43,182.39,170,178.09,164Z" style="fill: rgb(186, 104, 200); transform-origin: 185.676px 189.022px;" id="elcx37uy0qrmh" class="animable"></path><g id="el3watjh7xdtw"><path d="M178.09,164s-9.75,0-9.42,32.5c.22,21.38,7.66,17.49,17.21,16.88l16.81-1.57s-1.73-4.6-.3-8.29c0,0-8.28,1.63-21.83,0,0,0-1.92-15.89-.25-19.12C180.31,184.43,182.39,170,178.09,164Z" style="fill: rgb(255, 255, 255); opacity: 0.6; transform-origin: 185.676px 189.022px;" class="animable"></path></g><g id="el0eb6rqpi3d27"><polygon points="213.27 299.45 210.68 254.2 208.07 276.82 213.27 299.45" style="opacity: 0.1; transform-origin: 210.67px 276.825px;" class="animable"></polygon></g></g><g id="freepik--Counter--inject-1" class="animable" style="transform-origin: 273.88px 297.11px;"><rect x="164.1" y="269.27" width="220.09" height="144.51" style="fill: rgb(186, 104, 200); transform-origin: 274.145px 341.525px;" id="elke7kq0qhp3" class="animable"></rect><g id="elkbj93vphfjh"><g style="opacity: 0.4; transform-origin: 274.145px 341.525px;" class="animable"><rect x="164.1" y="269.27" width="220.09" height="144.51" style="fill: rgb(255, 255, 255); transform-origin: 274.145px 341.525px;" id="eltxb9i73en9a" class="animable"></rect></g></g><rect x="160.05" y="268.06" width="227.66" height="12.37" rx="2.49" style="fill: rgb(186, 104, 200); transform-origin: 273.88px 274.245px;" id="elbuerwq6hy05" class="animable"></rect><polygon points="278.56 248.42 327.73 248.42 331.25 208.28 282.07 208.28 278.56 248.42" style="fill: rgb(186, 104, 200); transform-origin: 304.905px 228.35px;" id="elwb7c60ltnr" class="animable"></polygon><g id="el28od9xzfhes"><polygon points="283.37 248.42 327.79 248.42 330.96 212.16 286.55 212.16 283.37 248.42" style="opacity: 0.2; transform-origin: 307.165px 230.29px;" class="animable"></polygon></g><polygon points="299.99 253.74 314.48 253.74 314.48 239.07 299.95 239.07 299.99 253.74" style="fill: rgb(38, 50, 56); transform-origin: 307.215px 246.405px;" id="el2w9elmfcveb" class="animable"></polygon><g id="el6psnvqhu4nl"><rect x="299.95" y="224.13" width="14.53" height="14.94" style="fill: rgb(38, 50, 56); transform-origin: 307.215px 231.6px; transform: rotate(180deg);" class="animable"></rect></g><g id="elesy4hm24n6f"><rect x="299.95" y="224.13" width="14.53" height="14.94" style="fill: rgb(255, 255, 255); opacity: 0.1; transform-origin: 307.215px 231.6px; transform: rotate(180deg);" class="animable"></rect></g><g id="el7p7ca8s7d6y"><path d="M312.72,224.13H302c-.81,0-1.47.28-1.47.63s.66.63,1.47.63h10.72c.8,0,1.46-.28,1.46-.63S313.52,224.13,312.72,224.13Z" style="fill: rgb(255, 255, 255); opacity: 0.2; transform-origin: 307.355px 224.76px;" class="animable"></path></g><polygon points="268.64 267.76 334.71 267.76 334.71 253.74 282.57 253.74 268.64 260.92 268.64 267.76" style="fill: rgb(186, 104, 200); transform-origin: 301.675px 260.75px;" id="elvc3vorx6r0l" class="animable"></polygon><g id="elilz2lrzpf1j"><rect x="282.57" y="253.74" width="52.15" height="14.02" style="opacity: 0.2; transform-origin: 308.645px 260.75px; transform: rotate(180deg);" class="animable"></rect></g><polygon points="320.25 216.23 326.13 216.23 328.33 191.03 322.46 191.03 320.25 216.23" style="fill: rgb(186, 104, 200); transform-origin: 324.29px 203.63px;" id="elq619dhpu02k" class="animable"></polygon><g id="elf4y0tu56hx"><polygon points="320.25 216.23 326.13 216.23 328.33 191.03 322.46 191.03 320.25 216.23" style="opacity: 0.2; transform-origin: 324.29px 203.63px;" class="animable"></polygon></g><polygon points="300.97 196.9 342.96 196.52 344.37 180.44 302.38 180.82 300.97 196.9" style="fill: rgb(186, 104, 200); transform-origin: 322.67px 188.67px;" id="elantlriyvv2n" class="animable"></polygon><polygon points="303.78 193.87 340.33 193.87 341.35 182.23 304.76 182.63 303.78 193.87" style="fill: rgb(38, 50, 56); transform-origin: 322.565px 188.05px;" id="elhie4xofb1mf" class="animable"></polygon><polygon points="344.37 180.44 342.96 196.52 345.5 194.98 346.42 183.28 344.37 180.44" style="fill: rgb(186, 104, 200); transform-origin: 344.69px 188.48px;" id="elrh8xswvmjqg" class="animable"></polygon><g id="el6wt97ho5bzu"><g style="opacity: 0.2; transform-origin: 344.69px 188.48px;" class="animable"><polygon points="344.37 180.44 342.96 196.52 345.5 194.98 346.42 183.28 344.37 180.44" id="el6mi3lkjlz2y" class="animable" style="transform-origin: 344.69px 188.48px;"></polygon></g></g></g><g id="freepik--Plant--inject-1" class="animable" style="transform-origin: 139.352px 364.841px;"><path d="M167.68,359.29s35.45-45-2.93-5.48c0,0,7.29-43.82-6.92,1.74,0,0-9.6-42.36-6.15,6.24,0,0-17.58-40.77-2.4,9.56,0,0,58.65,17.89,14.6-.23,0,0,60.07-3.28,4.67-5.32C168.55,365.8,228.83,337.84,167.68,359.29Z" style="fill: rgb(186, 104, 200); transform-origin: 169.095px 357.037px;" id="ele0xdkbg3ep" class="animable"></path><g id="elrdvmsq3mp7k"><path d="M167.68,359.29s35.45-45-2.93-5.48c0,0,7.29-43.82-6.92,1.74,0,0-9.6-42.36-6.15,6.24,0,0-17.58-40.77-2.4,9.56,0,0,58.65,17.89,14.6-.23,0,0,60.07-3.28,4.67-5.32C168.55,365.8,228.83,337.84,167.68,359.29Z" style="opacity: 0.1; transform-origin: 169.095px 357.037px;" class="animable"></path></g><path d="M137.22,389.69a.2.2,0,0,1-.11,0,.38.38,0,0,1-.25-.47c3-9.38,10.27-17.22,15.87-22.14a.37.37,0,0,1,.53,0,.36.36,0,0,1,0,.52c-5.52,4.87-12.72,12.59-15.64,21.81A.38.38,0,0,1,137.22,389.69Z" style="fill: rgb(38, 50, 56); transform-origin: 145.108px 378.333px;" id="elayxqh6u6n9" class="animable"></path><path d="M113,385h40.69c.67,0,1.21.88,1.21,2s-.54,2-1.21,2h-.88L150,406c-.67,4-2.92,6.84-5.5,6.84H122.18c-2.57,0-4.83-2.81-5.49-6.84L113.87,389H113c-.67,0-1.21-.88-1.21-2S112.32,385,113,385Z" style="fill: rgb(38, 50, 56); transform-origin: 133.345px 398.92px;" id="ele5sxkq9378" class="animable"></path><path d="M144.49,413.26H122.18c-2.76,0-5.17-2.95-5.86-7.16l-2.77-16.75H113c-.89,0-1.59-1-1.59-2.34s.7-2.34,1.59-2.34h40.69c.89,0,1.59,1,1.59,2.34s-.7,2.34-1.59,2.34h-.56l-2.76,16.75C149.66,410.31,147.25,413.26,144.49,413.26ZM113,385.42c-.39,0-.84.65-.84,1.59s.45,1.59.84,1.59h.88a.38.38,0,0,1,.37.31L117.06,406c.63,3.84,2.74,6.53,5.12,6.53h22.31c2.38,0,4.49-2.69,5.13-6.53l2.81-17.07a.38.38,0,0,1,.37-.31h.88c.4,0,.84-.65.84-1.59s-.44-1.59-.84-1.59Z" style="fill: rgb(38, 50, 56); transform-origin: 133.345px 398.965px;" id="elpla7e2b9hz" class="animable"></path><path d="M146.68,346.52s21.39-64.32-5.46-4.91c0,0-9.48-51.71-7,4.71,0,0-27.69-43.3-4.34,9.41,0,0-35.93-38.32,1.17,11.61,0,0,72.47-3.63,16.16-6.11,0,0,65.55-27.78,3.07-7.8C150.27,353.43,206.14,298.1,146.68,346.52Z" style="fill: rgb(186, 104, 200); transform-origin: 145.763px 341.88px;" id="elfvf1zfuibn" class="animable"></path><path d="M122.51,389.69h-.09a.37.37,0,0,1-.27-.45c5.15-20.89,19.52-41.29,19.67-41.5a.37.37,0,0,1,.52-.09.38.38,0,0,1,.09.53c-.15.2-14.44,20.5-19.56,41.24A.36.36,0,0,1,122.51,389.69Z" style="fill: rgb(38, 50, 56); transform-origin: 132.319px 368.635px;" id="elu7tn48nghkn" class="animable"></path><path d="M111,349.53s-50.43-39.72-6.14,3.29c0,0-49.1-8.17,2,7.76,0,0-47.47,10.75,7,6.88,0,0-45.68,19.7,10.72,2.7,0,0,20.05-65.73-.26-16.36,0,0-3.67-67.33-5.95-5.24C118.29,348.56,87,281,111,349.53Z" style="fill: rgb(186, 104, 200); transform-origin: 108.517px 347.946px;" id="elikm7d2971q8" class="animable"></path><g id="el3vjqn09jwk4"><path d="M111,349.53s-50.43-39.72-6.14,3.29c0,0-49.1-8.17,2,7.76,0,0-47.47,10.75,7,6.88,0,0-45.68,19.7,10.72,2.7,0,0,20.05-65.73-.26-16.36,0,0-3.67-67.33-5.95-5.24C118.29,348.56,87,281,111,349.53Z" style="fill: rgb(255, 255, 255); opacity: 0.3; transform-origin: 108.517px 347.946px;" class="animable"></path></g><path d="M134.78,392.58a.38.38,0,0,1-.36-.27c-8.9-29.74-24.69-37.34-24.84-37.41a.39.39,0,0,1-.19-.5.38.38,0,0,1,.5-.18c.16.07,16.24,7.78,25.25,37.87a.38.38,0,0,1-.25.47Z" style="fill: rgb(38, 50, 56); transform-origin: 122.258px 373.383px;" id="el9vmjecwleg9" class="animable"></path></g><defs>     <filter id="active" height="200%">         <feMorphology in="SourceAlpha" result="DILATED" operator="dilate" radius="2"></feMorphology>                <feFlood flood-color="#32DFEC" flood-opacity="1" result="PINK"></feFlood>        <feComposite in="PINK" in2="DILATED" operator="in" result="OUTLINE"></feComposite>        <feMerge>            <feMergeNode in="OUTLINE"></feMergeNode>            <feMergeNode in="SourceGraphic"></feMergeNode>        </feMerge>    </filter>    <filter id="hover" height="200%">        <feMorphology in="SourceAlpha" result="DILATED" operator="dilate" radius="2"></feMorphology>                <feFlood flood-color="#ff0000" flood-opacity="0.5" result="PINK"></feFlood>        <feComposite in="PINK" in2="DILATED" operator="in" result="OUTLINE"></feComposite>        <feMerge>            <feMergeNode in="OUTLINE"></feMergeNode>            <feMergeNode in="SourceGraphic"></feMergeNode>        </feMerge>            <feColorMatrix type="matrix" values="0   0   0   0   0                0   1   0   0   0                0   0   0   0   0                0   0   0   1   0 "></feColorMatrix>    </filter></defs></svg>