<svg class="animated" id="freepik_stories-seo-analytics-team" xmlns="http://www.w3.org/2000/svg" viewBox="0 0 650.86 428.37" version="1.1" xmlns:xlink="http://www.w3.org/1999/xlink" xmlns:svgjs="http://svgjs.com/svgjs"><style>svg#freepik_stories-seo-analytics-team:not(.animated) .animable {opacity: 0;}svg#freepik_stories-seo-analytics-team.animated #freepik--background-complete--inject-9 {animation: 3s Infinite  linear shake;animation-delay: 0s;}svg#freepik_stories-seo-analytics-team.animated #freepik--Window--inject-9 {animation: 1s 1 forwards cubic-bezier(.36,-0.01,.5,1.38) slideRight;animation-delay: 0s;}svg#freepik_stories-seo-analytics-team.animated #freepik--Text--inject-9 {animation: 1s 1 forwards cubic-bezier(.36,-0.01,.5,1.38) zoomIn,1.5s Infinite  linear wind;animation-delay: 0s,1s;}svg#freepik_stories-seo-analytics-team.animated #freepik--Charts--inject-9 {animation: 1s 1 forwards cubic-bezier(.36,-0.01,.5,1.38) slideLeft,1.5s Infinite  linear wind;animation-delay: 0s,1s;}svg#freepik_stories-seo-analytics-team.animated #freepik--search-bar--inject-9 {animation: 1s 1 forwards cubic-bezier(.36,-0.01,.5,1.38) slideDown,1.5s Infinite  linear floating;animation-delay: 0s,1s;}svg#freepik_stories-seo-analytics-team.animated #freepik--character-1--inject-9 {animation: 1s 1 forwards cubic-bezier(.36,-0.01,.5,1.38) slideUp;animation-delay: 0s;}            @keyframes shake {                10%, 90% {                    transform: translate3d(-1px, 0, 0);                  }                  20%, 80% {                    transform: translate3d(2px, 0, 0);                  }                  30%, 50%, 70% {                    transform: translate3d(-4px, 0, 0);                  }                  40%, 60% {                    transform: translate3d(4px, 0, 0);                  }            }                    @keyframes slideRight {                0% {                    opacity: 0;                    transform: translateX(30px);                }                100% {                    opacity: 1;                    transform: translateX(0);                }            }                    @keyframes zoomIn {                0% {                    opacity: 0;                    transform: scale(0.5);                }                100% {                    opacity: 1;                    transform: scale(1);                }            }                    @keyframes wind {                0% {                    transform: rotate( 0deg );                }                25% {                    transform: rotate( 1deg );                }                75% {                    transform: rotate( -1deg );                }            }                    @keyframes slideLeft {                0% {                    opacity: 0;                    transform: translateX(-30px);                }                100% {                    opacity: 1;                    transform: translateX(0);                }            }                    @keyframes slideDown {                0% {                    opacity: 0;                    transform: translateY(-30px);                }                100% {                    opacity: 1;                    transform: translateY(0);                }            }                    @keyframes floating {                0% {                    opacity: 1;                    transform: translateY(0px);                }                50% {                    transform: translateY(-10px);                }                100% {                    opacity: 1;                    transform: translateY(0px);                }            }                    @keyframes slideUp {                0% {                    opacity: 0;                    transform: translateY(30px);                }                100% {                    opacity: 1;                    transform: inherit;                }            }        .animator-hidden { display: none; }</style><g id="freepik--background-complete--inject-9" class="animable" style="transform-origin: 374.94px 184.68px;"><g id="elf3iso9byqu"><path d="M678.81,107.57l12.28-19.8L685,84a5.53,5.53,0,0,1-2.54-5.21,29.46,29.46,0,0,0,.11-3.39,5.58,5.58,0,0,1,2.89-5.09l6.29-3.37-11-20.54-6.28,3.37a5.43,5.43,0,0,1-5.69-.31,33.12,33.12,0,0,0-3.16-2,5.47,5.47,0,0,1-2.82-5L663,35.4l-23.28-.72-.22,7.15a5.47,5.47,0,0,1-3.16,4.78c-.55.25-1.08.53-1.62.81s-1.06.59-1.57.9a5.42,5.42,0,0,1-5.7,0l-6.11-3.78-12.28,19.8,6.12,3.79a5.51,5.51,0,0,1,2.52,5.2,29.64,29.64,0,0,0-.11,3.4,5.61,5.61,0,0,1-2.89,5.08l-6.29,3.37,11,20.54,6.29-3.37a5.58,5.58,0,0,1,5.83.4,32.06,32.06,0,0,0,2.89,1.78,5.52,5.52,0,0,1,2.94,5l-.22,7.2,23.28.72.22-7.15a5.54,5.54,0,0,1,3.24-4.8c.52-.24,1-.5,1.54-.78s1-.55,1.5-.85a5.57,5.57,0,0,1,5.81,0Zm-17.6-16a19.09,19.09,0,1,1,6.73-22.25A19.09,19.09,0,0,1,661.21,91.55Z" style="fill: rgb(235, 235, 235); transform-origin: 650.08px 76.065px;" class="animable" id="elo1b1tdx1mh"></path></g><g id="elkvli62j5x9"><path d="M66.86,312a2.63,2.63,0,0,1,1.29,2.43c0,.27,0,.54,0,.81s0,.55,0,.82a2.6,2.6,0,0,1-1.28,2.42l-2.93,1.7,5.51,9.54,2.93-1.69a2.63,2.63,0,0,1,2.74.1,15.38,15.38,0,0,0,1.42.82A2.63,2.63,0,0,1,78,331.31v3.37H89v-3.37A2.62,2.62,0,0,1,90.46,329a14.17,14.17,0,0,0,1.42-.82,2.64,2.64,0,0,1,2.75-.1l2.93,1.69,5.51-9.54-2.94-1.7a2.63,2.63,0,0,1-1.28-2.43c0-.26,0-.54,0-.81s0-.54,0-.81a2.62,2.62,0,0,1,1.29-2.43l2.93-1.69-5.51-9.55-2.92,1.69a2.62,2.62,0,0,1-2.75-.09,15.48,15.48,0,0,0-1.42-.83A2.59,2.59,0,0,1,89,299.24v-3.38H78v3.38a2.61,2.61,0,0,1-1.45,2.32,15.64,15.64,0,0,0-1.43.83,2.6,2.6,0,0,1-2.74.09l-2.92-1.69-5.51,9.55Zm16.64-5.79a9,9,0,1,1-9,9A9,9,0,0,1,83.5,306.24Z" style="fill: rgb(235, 235, 235); transform-origin: 83.505px 315.27px;" class="animable" id="eleusmbom2z4"></path></g><g id="el1evfcqqw4h1"><path d="M657.43,172.26a2.63,2.63,0,0,1,1.28,2.44c0,.26,0,.54,0,.81s0,.54,0,.81a2.63,2.63,0,0,1-1.28,2.43l-2.93,1.69L660,190l2.93-1.69a2.6,2.6,0,0,1,2.74.09,15.64,15.64,0,0,0,1.43.83,2.6,2.6,0,0,1,1.44,2.32v3.38h11v-3.38a2.6,2.6,0,0,1,1.44-2.32,15.64,15.64,0,0,0,1.43-.83,2.6,2.6,0,0,1,2.74-.09l2.93,1.69,5.51-9.55-2.94-1.7a2.61,2.61,0,0,1-1.28-2.42c0-.27,0-.54,0-.81s0-.55,0-.81a2.64,2.64,0,0,1,1.29-2.44l2.93-1.69L688.12,161l-2.92,1.69a2.64,2.64,0,0,1-2.75-.1,14.17,14.17,0,0,0-1.42-.82,2.63,2.63,0,0,1-1.45-2.33V156.1h-11v3.37a2.61,2.61,0,0,1-1.45,2.33,15.38,15.38,0,0,0-1.42.82,2.64,2.64,0,0,1-2.75.1L660,161l-5.51,9.54Zm16.63-5.79a9,9,0,1,1-9,9A9,9,0,0,1,674.06,166.47Z" style="fill: rgb(235, 235, 235); transform-origin: 674.04px 175.515px;" class="animable" id="elcsy0am5fk9b"></path></g><g id="eldu0i5p1izft"><path d="M77.15,262.64a3.39,3.39,0,0,1,0,4.82,3.44,3.44,0,0,1-2.36,1,3.62,3.62,0,0,1-2.47-1L57.26,252.18a.41.41,0,0,1-.27-.32.55.55,0,0,0-.16-.11,1.26,1.26,0,0,1-.16-.43.27.27,0,0,1-.16-.21c-.06-.11-.06-.27-.11-.32s-.11-.22-.11-.27v-.38c0-.11,0-.16,0-.32s0-.21,0-.27v-.37c0-.11.11-.16.11-.22s.05-.27.11-.43.05-.05.05-.1a4.31,4.31,0,0,1,.27-.49.1.1,0,0,1,.11-.1,1,1,0,0,1,.32-.38l15.06-15.28a3.5,3.5,0,0,1,4.83,0,3.4,3.4,0,0,1,0,4.83L64.44,249.82Z" style="fill: rgb(235, 235, 235); transform-origin: 67.2234px 249.837px;" class="animable" id="el80n74mxxhbe"></path></g><g id="el1egemn01lin"><path d="M90.82,264.35,104,233.09a3,3,0,0,1,3.91-1.55,2.89,2.89,0,0,1,1.5,3.8L96.24,266.66a3,3,0,0,1-2.74,1.77,2.57,2.57,0,0,1-1.07-.22A2.9,2.9,0,0,1,90.82,264.35Z" style="fill: rgb(235, 235, 235); transform-origin: 100.114px 249.867px;" class="animable" id="el8zzu9lyi979"></path></g><g id="elzf2qq7dke69"><path d="M135.32,251.75a0,0,0,0,1,0,.05,2.72,2.72,0,0,1-.38.38l-15.06,15.28a3.49,3.49,0,0,1-4.83,0,3.39,3.39,0,0,1,0-4.82l12.71-12.82L115,237a3.4,3.4,0,0,1,0-4.83,3.5,3.5,0,0,1,4.83,0l15.06,15.28a2.72,2.72,0,0,1,.38.38s0,.1,0,.1c.11.22.21.33.27.49s0,0,0,.1a4.52,4.52,0,0,0,.16.49s.06,0,.06.16v.37c0,.06,0,.22,0,.27s0,.21,0,.27v.43s-.06,0-.06.1c-.1.22-.1.38-.16.49s0,0,0,.16S135.43,251.54,135.32,251.75Z" style="fill: rgb(235, 235, 235); transform-origin: 124.877px 249.817px;" class="animable" id="eltsx836i098"></path></g></g><g id="freepik--Floor--inject-9" class="animable" style="transform-origin: 325.425px 426.93px;"><polygon points="12 426.93 90.36 426.83 168.72 426.8 325.43 426.73 482.14 426.8 560.5 426.83 638.85 426.93 560.5 427.02 482.14 427.06 325.43 427.13 168.72 427.06 90.36 427.02 12 426.93" style="fill: rgb(38, 50, 56); transform-origin: 325.425px 426.93px;" id="elu3sug9190o" class="animable"></polygon></g><g id="freepik--Window--inject-9" class="animable" style="transform-origin: 350.368px 209.635px;"><rect x="93.22" y="27.48" width="464.41" height="329.27" style="fill: rgb(255, 255, 255); transform-origin: 325.425px 192.115px;" id="ell5hmfqyerr9" class="animable"></rect><g id="elicubbntfrwh"><path d="M607.21,391.43c-.12.15-464.65.25-464.78.36-.24-.14,0-329.4-.13-329.63v-.49h.49c.14-.11,464.56.28,464.71.2.11.29-.37,329.25-.29,329.56Zm0,0c0,.12-.68-330.53,0-329l-464.41.2.5-.49c0-.14.32,330.84-.49,328.9l464.41.37Z" style="fill: rgb(199, 199, 199); transform-origin: 374.908px 226.72px;" class="animable" id="elz8h4du661b"></path></g><rect x="93.22" y="27.48" width="464.41" height="53.65" style="fill: #BA68C8; transform-origin: 325.425px 54.305px;" id="elbpx76wg1yrb" class="animable"></rect><rect x="115.82" y="62.34" width="11.19" height="1.87" style="fill: rgb(255, 255, 255); transform-origin: 121.415px 63.275px;" id="elrz3qqatmsvb" class="animable"></rect><rect x="115.82" y="70.72" width="11.19" height="1.87" style="fill: rgb(255, 255, 255); transform-origin: 121.415px 71.655px;" id="elya06gkeedak" class="animable"></rect><rect x="115.82" y="66.58" width="11.19" height="1.87" style="fill: rgb(255, 255, 255); transform-origin: 121.415px 67.515px;" id="el8oon2ehpj3l" class="animable"></rect><rect x="93.22" y="27.48" width="464.41" height="8.52" style="fill: rgb(55, 71, 79); transform-origin: 325.425px 31.74px;" id="elx5wy0bxrenb" class="animable"></rect><g id="elfyr59jt6k1"><path d="M149.57,66.42a2.12,2.12,0,1,1-2.12-2.11A2.11,2.11,0,0,1,149.57,66.42Z" style="fill: rgb(199, 199, 199); transform-origin: 147.45px 66.43px;" class="animable" id="elpri5vsvbyrn"></path></g><g id="el6839pa1kh8g"><path d="M158.2,66.42a2.12,2.12,0,1,1-2.12-2.11A2.11,2.11,0,0,1,158.2,66.42Z" style="fill: rgb(255, 255, 255); transform-origin: 156.08px 66.43px;" class="animable" id="elmiupfkdam8"></path></g><g id="elxmlhax41xmd"><path d="M166.83,66.42a2.12,2.12,0,1,1-2.12-2.11A2.11,2.11,0,0,1,166.83,66.42Z" style="fill: #BA68C8; transform-origin: 164.71px 66.43px;" class="animable" id="elovq6n34nsy"></path></g><rect x="548.28" y="81.13" width="9.35" height="275.62" style="fill: rgb(219, 219, 219); transform-origin: 552.955px 218.94px;" id="el9v11253ofc" class="animable"></rect><g id="elax3mzhdfh6v"><path d="M602.52,211.36h0a2.26,2.26,0,0,1-2.41-2.07V119.5a2.26,2.26,0,0,1,2.41-2.08h0a2.27,2.27,0,0,1,2.42,2.08v89.79A2.27,2.27,0,0,1,602.52,211.36Z" style="fill: rgb(166, 166, 166); transform-origin: 602.525px 164.39px;" class="animable" id="elxlwaqmm2se"></path></g></g><g id="freepik--Text--inject-9" class="animable" style="transform-origin: 374.985px 242.748px;"><g id="eli9cq6hu7d2"><path d="M217.34,273.23a8.55,8.55,0,0,1,12-1.15c7.21,5.9,19.67,12.79,31.3,12.62,8.2,0,15.57-2.45,20.49-6.06s7.05-7.7,7.05-11.8a9.38,9.38,0,0,0-1.48-5.24,15.43,15.43,0,0,0-4.92-4.92c-4.75-3.11-12.78-5.9-22.45-7.7H259a88.91,88.91,0,0,1-21.15-6.39c-6.22-3-11.63-7.05-15.24-12.79a25.2,25.2,0,0,1-3.76-13.43c0-9.84,5.57-18.36,13.11-23.93a48.44,48.44,0,0,1,28.35-8.69c15.73,0,27.36,7.71,35.72,13.11a8.45,8.45,0,0,1,2.3,11.64A8.29,8.29,0,0,1,286.66,211c-8.36-5.57-16.39-10.49-26.38-10.49A31.31,31.31,0,0,0,241.92,206c-4.42,3.28-6.23,6.88-6.23,10.33a7.94,7.94,0,0,0,1.15,4.58,15.79,15.79,0,0,0,4.43,4.27c4.26,2.94,11.63,5.57,20.48,7.21h.33c8.36,1.63,16.06,3.77,22.61,6.88,6.72,3.28,12.62,7.54,16.39,13.6A26.55,26.55,0,0,1,305,266.84c0,10.49-5.9,19.5-14.1,25.4-8,5.9-18.68,9.34-30.32,9.34-17.69-.16-32.61-9-42-16.38A8.73,8.73,0,0,1,217.34,273.23Z" style="fill: #BA68C8; transform-origin: 260.261px 242.663px;" class="animable" id="elhlvjkypdvi4"></path></g><g id="elq4zwz3gubrf"><path d="M330.25,292.73V196a8.89,8.89,0,0,1,9-9h53.59a9.09,9.09,0,0,1,9,9,9.24,9.24,0,0,1-9,9.18H348.45v30h38.18a9.1,9.1,0,0,1,0,18.19H348.45v30.16h44.41a9.1,9.1,0,0,1,0,18.19h-53.1c-.33,0-.33-.17-.33-.17l-.16.17A9,9,0,0,1,330.25,292.73Z" style="fill: #BA68C8; transform-origin: 366.045px 244.36px;" class="animable" id="elb26mer3bu24"></path></g><g id="el2kyuq6li2w4"><path d="M517.9,201.29a60.21,60.21,0,0,1,0,82.92,53.69,53.69,0,0,1-39.17,17.54,55.33,55.33,0,0,1-40.15-17.54,61.07,61.07,0,0,1,0-82.92,54.69,54.69,0,0,1,40.15-17.54A53.06,53.06,0,0,1,517.9,201.29Zm-2.13,41.46a42.46,42.46,0,0,0-11.15-28.68,35.37,35.37,0,0,0-52.44,0A41.71,41.71,0,0,0,441,242.75a41,41,0,0,0,11.14,28.52,35.84,35.84,0,0,0,26.55,11.79c9.83,0,19-4.42,25.89-11.79A41.75,41.75,0,0,0,515.77,242.75Z" style="fill: #BA68C8; transform-origin: 478.399px 242.75px;" class="animable" id="elsh1yqvn6g9q"></path></g></g><g id="freepik--Charts--inject-9" class="animable" style="transform-origin: 291.36px 248.365px;"><rect x="15.72" y="85.65" width="184.35" height="96.24" style="fill: rgb(255, 255, 255); transform-origin: 107.895px 133.77px;" id="el85xfraaa2ko" class="animable"></rect><g id="elqysc58mwcak"><path d="M249.65,216.54c-.1,0-184.39.18-184.51.21s0-96.3-.12-96.4v-.25h.25s184.4.14,184.43.12,0,96.23,0,96.32Zm0,0-.12-96.24c.5.25-184.35.21-184.26.3.55-1.55.08,96.32.2,96-1.12-.35,184.48,0,184.18,0Z" style="fill: rgb(199, 199, 199); transform-origin: 157.367px 168.425px;" class="animable" id="elj964mwggs5"></path></g><g id="elw5laylauu6b"><g style="opacity: 0.5; transform-origin: 107.89px 139.905px;" class="animable" id="el2k8rhx9fd94"><rect x="28" y="149.31" width="9.04" height="19.23" style="fill: #BA68C8; transform-origin: 32.52px 158.925px;" id="eln4kqzztoedl" class="animable"></rect><rect x="46.84" y="135.29" width="9.04" height="33.26" style="fill: #BA68C8; transform-origin: 51.36px 151.92px;" id="ele406zsswk1g" class="animable"></rect><rect x="65.69" y="138.82" width="9.04" height="29.72" style="fill: #BA68C8; transform-origin: 70.21px 153.68px;" id="el3nrw6tjn61j" class="animable"></rect><rect x="84.53" y="132.11" width="9.04" height="36.43" style="fill: #BA68C8; transform-origin: 89.05px 150.325px;" id="el8kubhuvt72a" class="animable"></rect><rect x="103.37" y="145.45" width="9.04" height="23.09" style="fill: #BA68C8; transform-origin: 107.89px 156.995px;" id="eljfky4tpsx2l" class="animable"></rect><rect x="122.21" y="134.3" width="9.04" height="34.24" style="fill: #BA68C8; transform-origin: 126.73px 151.42px;" id="elqak1tintj7d" class="animable"></rect><rect x="141.06" y="120.11" width="9.04" height="48.43" style="fill: #BA68C8; transform-origin: 145.58px 144.325px;" id="eldr0unitotto" class="animable"></rect><rect x="159.9" y="128.45" width="9.04" height="40.09" style="fill: #BA68C8; transform-origin: 164.42px 148.495px;" id="elfpdhkcmtawe" class="animable"></rect><rect x="178.74" y="111.26" width="9.04" height="57.28" style="fill: #BA68C8; transform-origin: 183.26px 139.9px;" id="el7s2x8wkkmvd" class="animable"></rect></g></g><polyline points="32.52 138.82 51.37 120.97 70.21 128.27 89.05 119.23 107.89 135.99 126.73 123.75 145.58 106.83 164.42 118.15 183.26 100.78" style="fill: none; stroke: rgb(38, 50, 56); stroke-miterlimit: 10; stroke-width: 0.75px; transform-origin: 107.89px 119.8px;" id="elbxzqqpvvmfw" class="animable"></polyline><g id="el0h5tyml8aju"><path d="M86.61,173.5A4.52,4.52,0,1,1,82.09,169,4.52,4.52,0,0,1,86.61,173.5Z" style="fill: #BA68C8; transform-origin: 82.09px 173.52px;" class="animable" id="elgf20ckeswh"></path></g><circle cx="51.36" cy="120.97" r="4.52" style="fill: #BA68C8; transform-origin: 51.36px 120.97px;" id="elpmq55gb9w4m" class="animable"></circle><circle cx="89.05" cy="119.23" r="4.52" style="fill: #BA68C8; transform-origin: 89.05px 119.23px;" id="el0jndv58kjrl9" class="animable"></circle><circle cx="70.21" cy="128.27" r="4.52" style="fill: #BA68C8; transform-origin: 70.21px 128.27px;" id="el8omb2krtgm7" class="animable"></circle><circle cx="107.89" cy="135.99" r="4.52" style="fill: #BA68C8; transform-origin: 107.89px 135.99px;" id="elc1qw3r7614" class="animable"></circle><circle cx="126.73" cy="123.75" r="4.52" style="fill: #BA68C8; transform-origin: 126.73px 123.75px;" id="elqnb90qywzb" class="animable"></circle><g id="el9qo2in69iju"><path d="M199.67,141.51a4.52,4.52,0,1,1-4.52-4.52A4.53,4.53,0,0,1,199.67,141.51Z" style="fill: #BA68C8; transform-origin: 195.15px 141.51px;" class="animable" id="elrqwe1q5dt2"></path></g><circle cx="164.42" cy="118.15" r="4.52" style="fill: #BA68C8; transform-origin: 164.42px 118.15px;" id="el10k5ftsiiibe" class="animable"></circle><circle cx="183.26" cy="100.78" r="4.52" style="fill: #BA68C8; transform-origin: 183.26px 100.78px;" id="elm53l486mjm" class="animable"></circle><rect x="152.63" y="306.79" width="345.61" height="69.36" style="fill: rgb(255, 255, 255); transform-origin: 325.435px 341.47px;" id="elk1ew4kq4sch" class="animable"></rect><g id="el5udwz1wnail"><path d="M547.8,341.47l0,69.36c.08.12-345.62.2-345.64.25H202v-.25l0-69.36c-.28-.61,345.64.2,345.81,0Zm0,0c.06-.18-346.49.59-345.39,0,0-.2.36,70.5-.21,69.11,0,0,345.78.13,345.56.25l0-69.36Z" style="fill: rgb(199, 199, 199); transform-origin: 374.905px 376.159px;" class="animable" id="eldg8rth8glag"></path></g><g id="el26bgm0w8hrh"><circle cx="243.34" cy="376.15" r="24.5" style="fill: #BA68C8; opacity: 0.4; transform-origin: 243.34px 376.15px; transform: rotate(-20.01deg);" class="animable" id="el0y9j7hfi6s0h"></circle></g><g id="elks3vgzbo1y7"><circle cx="243.34" cy="376.15" r="16.94" style="fill: none; stroke: rgb(255, 255, 255); stroke-miterlimit: 10; stroke-width: 3px; transform-origin: 243.34px 376.15px; transform: rotate(-76.62deg);" class="animable" id="elgddmy384bft"></circle></g><g id="elzvopdeh2u5"><path d="M243.34,376.15" style="fill: none; stroke: #BA68C8; stroke-miterlimit: 10; stroke-width: 3px; transform-origin: 243.34px 376.15px;" class="animable" id="elhj127d9h7kg"></path></g><g id="elwkchd0fepee"><path d="M243.34,394.59a18.44,18.44,0,0,1,0-36.88v3a15.44,15.44,0,1,0,9.53,3.29l1.85-2.36a18.44,18.44,0,0,1-11.38,32.95Z" style="fill: #BA68C8; transform-origin: 243.34px 376.15px;" class="animable" id="elnuobocxxlo"></path></g><g id="elnycvnd3fmo"><circle cx="309.17" cy="376.15" r="24.5" style="fill: #BA68C8; opacity: 0.4; transform-origin: 309.17px 376.15px; transform: rotate(-22.15deg);" class="animable" id="el9z3kmcw6b5r"></circle></g><g id="elsd0nmy2lq5"><circle cx="309.17" cy="376.15" r="16.94" style="fill: none; stroke: rgb(255, 255, 255); stroke-miterlimit: 10; stroke-width: 3px; transform-origin: 309.17px 376.15px; transform: rotate(-76.62deg);" class="animable" id="el65gpvhfrlwu"></circle></g><g id="el87b0iz7hnec"><path d="M309.17,376.15" style="fill: none; stroke: #BA68C8; stroke-miterlimit: 10; stroke-width: 3px; transform-origin: 309.17px 376.15px;" class="animable" id="elfowq58xssz9"></path></g><g id="eliem8nlnhbbp"><path d="M309.17,394.59a18.44,18.44,0,0,1,0-36.88v3a15.44,15.44,0,1,0,7.39,29l1.43,2.64A18.5,18.5,0,0,1,309.17,394.59Z" style="fill: #BA68C8; transform-origin: 304.36px 376.15px;" class="animable" id="elkwt7yw41hd"></path></g><g id="el0m7rmcq0axfo"><circle cx="375" cy="376.15" r="24.5" style="fill: #BA68C8; opacity: 0.4; transform-origin: 375px 376.15px; transform: rotate(-22.15deg);" class="animable" id="elax89xrjlt84"></circle></g><g id="elcxn1t97gpuu"><circle cx="375" cy="376.15" r="16.94" style="fill: none; stroke: rgb(255, 255, 255); stroke-miterlimit: 10; stroke-width: 3px; transform-origin: 375px 376.15px; transform: rotate(-76.62deg);" class="animable" id="elsn7052npcj"></circle></g><g id="elu63nhq6ofk"><path d="M375,376.15" style="fill: none; stroke: #BA68C8; stroke-miterlimit: 10; stroke-width: 3px; transform-origin: 375px 376.15px;" class="animable" id="el73tg9zvq0mp"></path></g><g id="elaod0l595awp"><path d="M375,394.59a18.44,18.44,0,0,1,0-36.88v3a15.44,15.44,0,1,0,14.72,20.1l2.86.91A18.38,18.38,0,0,1,375,394.59Z" style="fill: #BA68C8; transform-origin: 374.57px 376.15px;" class="animable" id="elvhoiypz94ge"></path></g><g id="el1lyc8a77047"><circle cx="440.83" cy="376.15" r="24.5" style="fill: #BA68C8; opacity: 0.4; transform-origin: 440.83px 376.15px; transform: rotate(-22.15deg);" class="animable" id="elamxoa02hr2h"></circle></g><g id="elb3hhju2xdu"><circle cx="440.83" cy="376.15" r="16.94" style="fill: none; stroke: rgb(255, 255, 255); stroke-miterlimit: 10; stroke-width: 3px; transform-origin: 440.83px 376.15px; transform: rotate(-77.26deg);" class="animable" id="elilxagky3eyp"></circle></g><g id="el2x3vwi293a3"><path d="M440.83,376.15" style="fill: none; stroke: #BA68C8; stroke-miterlimit: 10; stroke-width: 3px; transform-origin: 440.83px 376.15px;" class="animable" id="elxzkr6o0jsgh"></path></g><g id="elykysc8j6foe"><path d="M440.83,394.59a18.44,18.44,0,0,1,0-36.88v3a15.46,15.46,0,1,0,14.49,10.12l2.82-1a18.44,18.44,0,0,1-17.31,24.8Z" style="fill: #BA68C8; transform-origin: 440.831px 376.17px;" class="animable" id="elqlkwh9lg47j"></path></g><g id="elaf0rwvrzqzh"><circle cx="506.66" cy="376.15" r="24.5" style="fill: #BA68C8; opacity: 0.4; transform-origin: 506.66px 376.15px; transform: rotate(-22.15deg);" class="animable" id="el5rx3lmzizdv"></circle></g><g id="elhsetnqdpc3"><circle cx="506.66" cy="376.15" r="16.94" style="fill: none; stroke: rgb(255, 255, 255); stroke-miterlimit: 10; stroke-width: 3px; transform-origin: 506.66px 376.15px; transform: rotate(-74.09deg);" class="animable" id="eljwb1nyvy0ap"></circle></g><g id="el4hxcixzq84l"><path d="M506.66,376.15" style="fill: none; stroke: #BA68C8; stroke-miterlimit: 10; stroke-width: 3px; transform-origin: 506.66px 376.15px;" class="animable" id="elg8s6rgca3ei"></path></g><g id="elbpcpxyoz72"><path d="M500.71,393.6a18.44,18.44,0,0,1,6-35.89v3a15.44,15.44,0,0,0-5,30.05Z" style="fill: #BA68C8; transform-origin: 497.47px 375.655px;" class="animable" id="elir60t2vxjxq"></path></g><g id="elhfx93b8mg9"><path d="M563.91,261.2l-.17-.05-.16-.06L560.46,260l-.19-.06-1.78-.62-.21-.07-2.83-1-.23-.08-1.73-.61-.25-.08h0L550,256.35l-.28-.1-2-.68-.31-.1-2.43-.85-.33-.11-2.14-.75-.34-.11-3-1-.31-.11-2.24-.78-.3-.1-2.16-.75-.25-.09-2.46-.86-.25-.09-2.13-.74-.21-.08-3-1-.21-.08-3.16-1.09-.17-.07L520,245.9l-.16-.05-3.13-1.1-.14,0-2.64-.92-.11,0-2.77-1,2.63-.85.12,0,3-1,.14,0,2.6-.84.16,0,3.32-1.06.19-.07,2.22-.71.2-.06,4.9-1.58.24-.08L532,236l.26-.08,4.78-1.54.29-.09h0l1-.34.32-.1,4.91-1.57h0l.37-.12,1.1-.35.36-.12,5.16-1.66.38-.12.6-.19.35-.12,5.69-1.82.33-.11h0l.52-.17.3-.09,5.66-1.83c.05.16.1.32.14.48h0l.12.4h0l0,.12h0c.06.16.1.32.15.48a59.23,59.23,0,0,1,2.07,12.31h0c0,.16,0,.33,0,.5h0a52,52,0,0,1,0,5.72c0,.37,0,.73-.07,1.1h0A60,60,0,0,1,563.91,261.2Z" style="fill: rgb(199, 199, 199); transform-origin: 538.994px 243.39px;" class="animable" id="el4hhm2vnyvvw"></path></g><g id="elmcme2snadm"><path d="M513.77,241.9l.13,1.89-.11,0-.14-1.81Zm3-1-.26,3.79.14,0,.26-3.87Zm2.9-.93-.16,0,.27,5.81.16.05Zm3.32-1.06-.63,7.81.17.07.65-7.95Zm2.61-.84-.2.06.29,9.75.21.08Zm4.1,4.75-.79,6.18.21.08.8-6.23.82-6.44-.24.08Zm2.52-6.88L532,236l-.71,13.8.25.09ZM534,250.79l.25.09,3.08-16.55-.29.09ZM538.37,234l-2,17.65.3.1,2-17.85Zm5.23-1.67-4.66,20.2.31.11L544,232.18l-.37.12Zm1.47-.48-2.87,21.82.34.11,2.89-22Zm5.52-1.78-5.91,24.46.33.11,6-24.69Zm1-.31-4.13,25.73.31.1,4.17-25.95Zm6-1.94-7.91,28.45.28.1,8-28.66Zm.85-.28-5.22,30h0l.25.08,5.27-30.14Zm6.22-1-.12-.4-9.34,32.09.23.08,9.23-31.76Zm0,.13-6.43,32.63.21.07,6.37-32.22C564.81,226.94,564.77,226.78,564.71,226.62Zm2.25,13.3c0-.17,0-.34,0-.5l-6.66,20.52.19.06,6.5-20.08Zm0,5.72-3.37,15.45.16.06,3.13-14.4h0C566.91,246.37,566.93,246,567,245.64Z" style="fill: rgb(219, 219, 219); transform-origin: 540.325px 243.67px;" class="animable" id="elggc5si896bb"></path></g><polygon points="514.34 226.53 509.85 226.04 456.97 207.63 461.45 208.11 514.34 226.53" style="fill: rgb(166, 166, 166); transform-origin: 485.655px 217.08px;" id="el5bvy8qyfsv7" class="animable"></polygon><polygon points="461.45 208.11 456.97 207.63 510.37 190.45 514.85 190.93 461.45 208.11" style="fill: rgb(166, 166, 166); transform-origin: 485.91px 199.28px;" id="elwividgh3oi" class="animable"></polygon><g id="elpuzqy7xcwi"><path d="M481.45,185.21l-.38,57.6,54.08-17.45C527.56,201.11,506.52,185.37,481.45,185.21Z" style="fill: rgb(55, 71, 79); transform-origin: 508.11px 214.01px;" class="animable" id="elpogao5lj0r"></path></g><g id="el6h20ypaj8en"><path d="M483.11,185.24l-1.68,2.83v-.33l1.48-2.51Zm1.71.08-3.42,7.61v.45l3.61-8Zm6.24.74L481.34,202v.41l10-16.29Zm1.35.25L481.29,210v.58l11.35-24.25Zm5.29,6.77,3-4.46-.27-.1-3,4.4-8.88,13.13-7.34,10.87v.49l7.58-11.21Zm3.41-4.32L481.2,223.58v.63l20.18-35.35Zm6.78,3.05-26.71,35v.53l27-35.41Zm.62.34L481.14,234v.67l27.68-42.36Zm5.83,3.72-33.22,39.88v.6l33.55-40.24Zm.69.51-31,45.48.66-.21,30.68-45Zm5.08,4.34-34.57,40.65.77-.25L520.4,201Zm.57.55L493.5,238.8l.6-.19L521,201.56Zm4.46,5-28.8,31.62.69-.23,28.32-31.12C525.28,206.45,525.21,206.35,525.14,206.27Zm.7.9-20.77,27.9.51-.17,20.47-27.45Zm3.57,5.3-19.69,21.11.57-.19,19.26-20.68A1.88,1.88,0,0,0,529.41,212.47Zm.53.9-14.26,18.28.43-.14,14-17.89Zm3,6-9.84,9.92.48-.16,9.45-9.54Zm.51,1.23-5.89,7.25.37-.12,5.61-6.91A1.28,1.28,0,0,0,533.43,220.57Z" style="fill: rgb(38, 50, 56); transform-origin: 507.33px 213.545px;" class="animable" id="elnk6ow8n098a"></path></g><g id="el161frj4f4o3"><path d="M481.07,242.81,427,260.27a56.84,56.84,0,0,0,53.69,40.17,56,56,0,0,0,17.56-2.72c17.92-5.78,30.74-18.63,36.67-36.75Z" style="fill: #BA68C8; transform-origin: 480.96px 271.625px;" class="animable" id="elec91b5vwhz9"></path></g><g id="elwq60bkzbxdm"><path d="M427,260.27l-4.51,0a56.86,56.86,0,0,0,53.69,40.17l4.51,0A56.84,56.84,0,0,1,427,260.27Z" style="fill: #BA68C8; transform-origin: 451.59px 280.355px;" class="animable" id="elv5y9tb124jk"></path></g><g id="elsye1xd61y5"><g style="opacity: 0.1; transform-origin: 451.59px 280.355px;" class="animable" id="eloir4yoyanj"><g id="elz6jnbjcco1"><path d="M427,260.27l-4.51,0a56.86,56.86,0,0,0,53.69,40.17l4.51,0A56.84,56.84,0,0,1,427,260.27Z" class="animable" style="transform-origin: 451.59px 280.355px;" id="el9r1nrynadxt"></path></g></g></g><g id="el55lv4ez6qmn"><path d="M429.47,259.47l-.62,5.85a.09.09,0,0,1,0-.06l.62-5.77Zm6.11-2-4.52,12.55s0,0,0,.05l4.55-12.62Zm2.18-.7L435,276.47l.06.08,2.75-19.77Zm3.87-1.25-5.73,22.14a.35.35,0,0,1,.05.08l5.78-22.26Zm1.51-.49-3,27.64a.47.47,0,0,0,.1.1l3-27.77Zm4.58-1.48-6.7,30,.1.1,6.73-30.19Zm1.11-.36-2.72,35,.14.11L449,253.17Zm-1.9,35.61a.83.83,0,0,0,.15.11l6.3-37.19-.18.07Zm7.75-37.5-.49,42.22.2.11.47-42.39Zm.13,42.55.2.1,4.92-44.34-.24.08ZM461,249.29l-.23.08.37,47.39.26.1Zm.64,47.66.26.09,3.93-49.31-.28.1Zm5-49.49-.29.09L468,298.87l.32.08ZM468.53,299l.31.07,3.64-53.49-.35.11Zm7.18,1.08-2.42-54.77-.34.12,2.39,54.71.37,0h0l.37,0,1.9-56.41-.4.13Zm7.27,0-4.11-56.53-.4.13,4.14,56.77a2.17,2.17,0,0,0,.36,0,0,0,0,0,0,0,0h.35L484.69,244l-.37-.12Zm2.43-55.78-.37-.12,5.14,55.53.32-.05Zm4,1.37,1,54,.32-.06-1.05-53.82Zm1,.33-.32-.11,7.95,51.91.17,0,.09,0Zm7.42,41.71-1.15-15.13-1.93-25.11-.26-.09,1.92,25.22,1.16,15.14.58,7.56.19,2.41.26-.09-.18-2.33Zm-2.19-39.94-.26-.09,11.09,46.73.2-.1Zm6.05,2L507.18,294l.2-.1-5.46-44.09Zm1.09.37-.2-.07,10.31,40.59.15-.1Zm13.43,4.53L520,285.05l.11-.1-3.72-30.24Zm1.3.44-.11,0,7.84,24.15.07-.08Zm-8.82-3L513.91,290a.65.65,0,0,0,.15-.1l-5.18-37.7Zm5.07,14-3.5-12.31-.38-1.32-.15-.06.4,1.42,3.49,12.31,5.57,19.51.1-.08Zm7.39-9.84,4.69,22.12.06-.09-4.67-22Zm1.14.39-.09,0,6.64,17.36a.09.09,0,0,0,0-.06Zm3.5,1.17,3.75,15a.09.09,0,0,0,0-.06l-3.74-14.92Zm1.93.66,0,0,4.79,8.68v0Zm3.51,1.18,2,5.59a0,0,0,0,0,0,0l-2-5.55Zm3.27,1.11h0q.16.21.3.42h0C534.73,261.12,534.64,261,534.54,260.85Z" style="opacity: 0.1; transform-origin: 481.822px 272.004px;" class="animable" id="elk2599dzwna"></path></g><g id="elywi5hxmqa4f"><path d="M481.45,185.21c-31.33-.2-56.9,25.42-57.11,57.24A55.53,55.53,0,0,0,427,260.27l54.07-17.46Z" style="fill: rgb(69, 90, 100); transform-origin: 452.892px 222.739px;" class="animable" id="el8ov5psyszlg"></path></g><g id="el30ayvbbeqod"><path d="M481.15,230.85v.44L431.2,215.35l.19-.37ZM430.88,216l50.22,21.54v-.4l-50.05-21.49A2.31,2.31,0,0,0,430.88,216Zm4.63-7.47a2.62,2.62,0,0,0-.24.34l45.92,16.1v-.39Zm-.68,1,46.32,20.43v-.46l-46.1-20.31A4,4,0,0,0,434.83,209.46Zm11.71-12.35a2.51,2.51,0,0,0-.24.19l35,13.7v-.26Zm-1.23,1L481.25,216v-.33l-35.7-17.73A2.51,2.51,0,0,0,445.31,198.1Zm-4.57,4.21-.25.26,40.75,14.91v-.33Zm-1.11,1.16,41.57,20.06v-.4l-41.33-19.91Zm24-15.47a1.66,1.66,0,0,0-.21.06l18,8.89v-.17Zm-2.53.89,20.27,12.43v-.22l-20.06-12.28Zm-7.34,3.45a1.12,1.12,0,0,0-.24.13L481.32,204v-.22Zm-1.79,1,29.35,15.73v-.26l-29.13-15.6Zm21.28-7.63-.17,0,8.36,4.46v-.11Zm-3.78.68,11.94,8.19v-.16l-11.78-8.07Zm9.34-1.17h-.14l2.79,2.06v-.1Zm-54.23,62.86,22.6,5.65.28-.1-22.89-5.73A1.09,1.09,0,0,0,424.55,248.12Zm-.08-1.21v.18l30.65,4.1.42-.13Zm1.24,8.6,8.81,2.33.21-.07-9.05-2.39Zm-.15-.67,0,.13,13.46,1.41.32-.1Zm-1.17-14.49,35.34,9.35.37-.12-35.7-9.45C424.4,240.2,424.39,240.28,424.39,240.35Zm.06-1a1.94,1.94,0,0,0,0,.24l45.42,6.81.54-.17Zm10-6L426.91,231l-1.28-.4a2.8,2.8,0,0,0-.06.28l1.25.39,7.56,2.37,15.13,4.76,22.9,7.22.43-.14-23.25-7.33Zm-8.76-3.18-.06.28L480,243.18l.56-.19Zm2.08-7.18,52.76,20,.48-.15-53.12-20.14A2.08,2.08,0,0,0,427.79,223Zm.3-.81a2.19,2.19,0,0,0-.12.33l53.13,15.84V238Z" style="fill: rgb(55, 71, 79); transform-origin: 452.925px 221.59px;" class="animable" id="elkmdi6dondrd"></path></g><g id="el4g0z3t51egn"><path d="M481.45,185.21l-4.51,0c-31.33-.2-56.9,25.42-57.11,57.24a55.49,55.49,0,0,0,2.66,17.82l4.51,0a55.53,55.53,0,0,1-2.66-17.82C424.55,210.63,450.12,185,481.45,185.21Z" style="fill: rgb(55, 71, 79); transform-origin: 450.637px 222.739px;" class="animable" id="eltypn2vpl7pd"></path></g></g><g id="freepik--Plant--inject-9" class="animable animator-hidden" style="transform-origin: 565.25px 380.425px;"><g id="el0nvdi6bhsr3p"><path d="M566.71,398.92s9.19-33,16.53-44.2,21-23.52,21-23.52S603.94,382.07,566.71,398.92Z" style="fill: #BA68C8; transform-origin: 585.475px 365.06px;" class="animable" id="elt6ptdatqidf"></path></g><g id="elhe0o57euog"><path d="M567.36,398.35a157.58,157.58,0,0,0,8.38-16A111.31,111.31,0,0,1,580.31,365a.08.08,0,0,1,.16.05c-1.22,5.22-2.64,10.38-3.93,15.58,3.71-8,7.24-16.16,11.66-23.75a50.43,50.43,0,0,1,4.26-10.56c0-.1.21,0,.16.06a66.88,66.88,0,0,0-2.86,7.92,79.59,79.59,0,0,1,7-9.65c.16-.19.48,0,.32.22-5.91,7.54-10,16.12-13.87,24.81a132.06,132.06,0,0,0,11.54-14.42s.11,0,.08.06a119.11,119.11,0,0,1-12.35,16c-2.83,6.37-5.62,12.76-9,18.81,6.74-5.7,11.93-13.07,17.06-20.18a.15.15,0,0,1,.25.17c-5.13,7.81-10.45,15.16-17.83,20.94A82.53,82.53,0,0,1,568,398.8.4.4,0,0,1,567.36,398.35Z" style="fill: rgb(38, 50, 56); transform-origin: 582.226px 371.739px;" class="animable" id="eli9wce1sd6ls"></path></g><g id="elp6nmn7lh7ak"><path d="M565,399s16.52-30.42,11.72-59.91-9.94-40-9.94-40S540.77,344.92,565,399Z" style="fill: #BA68C8; transform-origin: 566.134px 349.045px;" class="animable" id="elsf326bxr9r"></path></g><g id="elgxez4zygzh"><path d="M558.18,351.14a143.85,143.85,0,0,0,6.37,24.56c.05-10.82.26-21.65.55-32.47A83.36,83.36,0,0,1,562,323.07c0-.2.29-.19.3,0a115.16,115.16,0,0,0,2.9,17.34q.38-13.4.87-26.78a.12.12,0,0,1,.23,0c0,13.95,0,27.9-.09,41.85A111.46,111.46,0,0,0,571,338.92c0-.05.1,0,.1,0a64.92,64.92,0,0,1-4.88,18.86c-.06,8.92-.16,17.83-.36,26.75,2.8-9.48,5.78-18.66,6.59-28.68a.11.11,0,0,1,.21,0c-.22,11-3.06,22.26-6.71,32.64a.57.57,0,0,1-.18.26c-.09,3.26-.18,6.52-.29,9.78a.36.36,0,0,1-.72,0q-.19-10-.17-20A89.77,89.77,0,0,1,558,351.15C558,351.07,558.16,351.05,558.18,351.14Z" style="fill: rgb(38, 50, 56); transform-origin: 565.33px 356.215px;" class="animable" id="elw5enjv7spba"></path></g><g id="ellj43o4wqp5"><path d="M559.31,346.43a57.66,57.66,0,0,1,1.15,8c0,.09-.13.1-.16,0a56.9,56.9,0,0,1-1.35-8C558.92,346.27,559.27,346.23,559.31,346.43Z" style="fill: rgb(38, 50, 56); transform-origin: 559.704px 350.398px;" class="animable" id="elsaj8svb6rfi"></path></g><g id="elflnghsk3ovd"><path d="M569,324.19c0-.09.15-.06.16,0a20.81,20.81,0,0,1-.83,5.54c0,.15-.26.08-.23-.07C568.43,327.87,568.66,326,569,324.19Z" style="fill: rgb(38, 50, 56); transform-origin: 568.629px 326.973px;" class="animable" id="elukvos1tt72a"></path></g><g id="el4e2y1yrdxe2"><path d="M558.92,399s.68-31.75-8.43-47.54-24.23-23.83-24.23-23.83S532.36,383.57,558.92,399Z" style="fill: #BA68C8; transform-origin: 542.596px 363.315px;" class="animable" id="eluni8zglj3a"></path></g><g id="elxzuvnbsszsa"><path d="M542.32,371.8a117.23,117.23,0,0,0,12.33,15.63q-2.73-9.74-6.31-19.15c-5.11-4.48-10.17-9.12-13.3-15.25,0-.1.09-.18.14-.08,3.37,5.42,7.88,9.77,12.62,13.94a246.19,246.19,0,0,0-12.68-27.61.2.2,0,0,1,.35-.21,153.21,153.21,0,0,1,7.95,14.5c-.86-3.4-1.54-6.87-2.41-10.24,0-.09.11-.13.14,0a57.48,57.48,0,0,1,3.74,13.47,161.72,161.72,0,0,1,8,21.73c-.23-4.76-.53-9.5-1-14.25,0-.09.14-.11.16,0a78.1,78.1,0,0,1,1.38,16c1.31,4.73,2.41,9.52,3.3,14.34,0,.13-.17.19-.2.06-.49-2-1-4-1.58-6a.21.21,0,0,1-.1,0c-4.89-4.89-9.53-10.48-12.58-16.72C542.25,371.8,542.3,371.77,542.32,371.8Z" style="fill: rgb(38, 50, 56); transform-origin: 545.885px 366.863px;" class="animable" id="el132y4s1lbmaa"></path></g><g id="el46mqdek2y2v"><path d="M531.76,346c1,1.09,2,2.24,2.93,3.37a24.58,24.58,0,0,1,2.62,3.07.05.05,0,0,1-.07.07,15.88,15.88,0,0,1-3-3,26.62,26.62,0,0,1-2.59-3.41A.09.09,0,0,1,531.76,346Z" style="fill: rgb(38, 50, 56); transform-origin: 534.485px 349.259px;" class="animable" id="elb7kh7zsvc85"></path></g><g id="el5adt8w27k1v"><path d="M584.9,401.29l-1.15,15-3.46,45.47H550.11l-3.46-45.47-1.15-15h39.4Z" style="fill: rgb(69, 90, 100); transform-origin: 565.2px 431.525px;" class="animable" id="el88vmufzh6hm"></path></g><g id="elf5xjo3h9df7"><path d="M584.9,401.29l-.7,9.14L546.31,412l-.81-10.66h39.4Z" style="fill: rgb(55, 71, 79); transform-origin: 565.2px 406.645px;" class="animable" id="elaaybohpsb2"></path></g><g id="elit6s0vli5si"><rect x="542.82" y="393.91" width="44.76" height="11.53" style="fill: rgb(69, 90, 100); transform-origin: 565.2px 399.675px; transform: rotate(180deg);" class="animable" id="el0b6wg4trq5p9"></rect></g></g><g id="freepik--search-bar--inject-9" class="animable" style="transform-origin: 435.02px 78.3172px;"><rect x="195.91" y="45.26" width="428.58" height="31.08" style="fill: rgb(255, 255, 255); transform-origin: 410.2px 60.8px;" id="ely3lifpkshgj" class="animable"></rect><g id="eljivutoxd1mo"><path d="M674.07,111c-.36-.36-429.33,1-428.94,0l0-31.08v-.38c.4,0,428.68.23,429,.38l0,31.08Zm0,0L674,79.94c.36-.21-430.16,1-428.16,0l0,31.08c-2.48-1,428.89.33,428.23,0Z" style="fill: rgb(38, 50, 56); transform-origin: 459.63px 95.4572px;" class="animable" id="elt5crdhc4p1"></path></g><rect x="593.41" y="45.26" width="31.08" height="31.08" style="fill: #BA68C8; transform-origin: 608.95px 60.8px;" id="el9kwx0nvlqvm" class="animable"></rect><g id="el6t3zon0q9ls"><path d="M666.41,102.45l-2.3,1.74-4.26-5.62-1.55-2a3.47,3.47,0,0,0,.89-.51,3.73,3.73,0,0,0,1.18-1.53L662,96.66Z" style="fill: rgb(255, 255, 255); transform-origin: 662.355px 99.36px;" class="animable" id="elyrn4luhcp7g"></path></g><g id="elnck4fletrx8"><path d="M661.89,89.22a6.27,6.27,0,1,0-2,9.35,5,5,0,0,0,.87-.56,5.93,5.93,0,0,0,1.3-1.35A6.27,6.27,0,0,0,661.89,89.22ZM659.19,96a3.47,3.47,0,0,1-.89.51,3.79,3.79,0,1,1,.89-.51Z" style="fill: rgb(255, 255, 255); transform-origin: 656.926px 93.0464px;" class="animable" id="elfa6n346h3fv"></path></g><rect x="203.58" y="51.37" width="0.83" height="18.86" style="fill: rgb(38, 50, 56); transform-origin: 203.995px 60.8px;" id="eldaavi59rv6q" class="animable"></rect></g><g id="freepik--character-2--inject-9" class="animable animator-hidden" style="transform-origin: 570.29px 252.07px;"><g id="elhoy8r59a618"><path d="M624.79,141.57c-3.11,22.92-8.85,45.81-12.6,49.41-5.82,5.57-38.16,13.46-48.6,14-3.42.17-6.4-23-3.64-25.36s37.48-8.43,39.39-9.59c1-.62,9.47-18.26,16-30.07C621.36,129,625.73,134.61,624.79,141.57Z" style="fill: rgb(235, 148, 129); transform-origin: 591.891px 169.384px;" class="animable" id="ele9yqh4bl4l"></path></g><g id="elrs9xwtw320b"><path d="M575.37,204.32l-4.15-29.19s24.59-5.55,27.56-6.49c1.25-.39,11.82-22.18,16.9-31.51,3.34-6.14,10.21-8.13,9.89,5.37-.19,7.91-6.54,45.05-12.7,50.18C608,196.76,575.37,204.32,575.37,204.32Z" style="fill: #BA68C8; transform-origin: 598.4px 168.357px;" class="animable" id="elojiazammj8i"></path></g><g id="elb6sys8slroa"><path d="M580.57,201.62c0-2.13-1.3-10.84-1.65-13s-2.07-10.8-2.44-13c0-.12-.2-.13-.18,0,.33,2.2,1.37,11,1.7,13.15s1.76,10.83,2.45,12.88C580.48,201.7,580.57,201.69,580.57,201.62Z" style="fill: rgb(38, 50, 56); transform-origin: 578.434px 188.604px;" class="animable" id="elxjb8laxwzek"></path></g><g id="el6jkb9c9p24e"><path d="M625.55,140.27c0,.33,0,.68,0,1s0,.78,0,1.18c0,1.36-.24,3.58-.61,6.36-.07.51-.14,1-.22,1.56,0,.33-.09.67-.14,1-.11.72-.22,1.46-.34,2.22l-.06.4c-.13.83-.27,1.69-.42,2.56-.11.63-.21,1.27-.33,1.92s-.23,1.3-.36,2c-.05.33-.12.66-.18,1-.69,3.67-1.5,7.51-2.38,11.2-.23,1-.48,2-.74,3-.16.65-.33,1.3-.5,1.93s-.34,1.25-.52,1.86c-1.84,6.41-3.89,11.54-5.91,13.23-3.31,2.76-19.32,7.13-29.32,9.65l36.59-69.67.43-.14a2.9,2.9,0,0,1,2.58.45,3.59,3.59,0,0,1,.88,1,5.55,5.55,0,0,1,.5.94A7.81,7.81,0,0,1,625,136,18.79,18.79,0,0,1,625.55,140.27Z" style="fill: rgb(2, 1, 0); opacity: 0.1; transform-origin: 604.535px 167.372px;" class="animable" id="elrf9dlyc0xa"></path></g><g id="eltu7h5389rjq"><path d="M617.05,135.35S589,232.82,591.12,243.81s31.9,31.85,33,29.95,13.19-72.23,2.81-122.28C622.11,128.09,617.05,135.35,617.05,135.35Z" style="fill: #BA68C8; transform-origin: 611.057px 204.083px;" class="animable" id="elekd2xo8hi8p"></path></g><g id="elniryfi99jvp"><path d="M554.38,462c2.45.76,73.85-.78,76.46-2.52,1-.64-5.12-68.28-5.12-68.28l-45.28.87,5.15,45.24s-26.35,12.48-29,14.7S551.94,461.26,554.38,462Z" style="fill: rgb(235, 148, 129); transform-origin: 592.114px 426.7px;" class="animable" id="elzluektxs82l"></path></g><g id="elc1xpxehha9"><path d="M554.38,462c2.44.76,73.85-.78,76.46-2.52.31-.2.41-7.07-.73-16-13,2.17-59.16,9.27-62.76,7.15-2.51-1.47-.29-3.78,1.77-5.33-5.9,2.94-11.41,5.77-12.55,6.72C553.93,454.24,551.94,461.27,554.38,462Z" style="fill: rgb(38, 50, 56); transform-origin: 592.16px 452.84px;" class="animable" id="ele2mexz0w6xe"></path></g><g id="elok17hlxyj9m"><path d="M630.83,459.5c-1.46,1-24.51,1.89-44.93,2.36l43.42-28.59C630.43,447.18,631.25,459.23,630.83,459.5Z" style="fill: rgb(2, 1, 0); opacity: 0.1; transform-origin: 608.421px 447.565px;" class="animable" id="elesys1f4euha"></path></g><g id="el2ugqrgqzxwt"><path d="M584.31,426.48l44.46-.62S620,319.38,620.33,317.33c.47-2.62,32-126.3,32-126.3H609.91s-33.46,115.28-34.66,126.38C573.3,335.35,584.31,426.48,584.31,426.48Z" style="fill: rgb(55, 71, 79); transform-origin: 613.674px 308.755px;" class="animable" id="el6zo7xakawh"></path></g><g id="el78rg2jxl15k"><path d="M624.77,415.82c-2.62-.19-5.28-.16-7.91-.19s-5.28,0-7.91,0c-5.28.05-10.55.13-15.82.28l-4.32.15c-1.54.08-3.08.34-4.62.4-.12,0-.11.18,0,.18,1.29,0,2.59.21,3.88.24s2.69.05,4,.05q4,0,7.91,0c5.27,0,10.55-.11,15.82-.33,3-.12,6-.16,8.94-.46A.14.14,0,0,0,624.77,415.82Z" style="fill: rgb(38, 50, 56); transform-origin: 604.509px 416.273px;" class="animable" id="elgzptzn50j0j"></path></g><g id="elrzn8voerpuq"><path d="M643,201c-3.8,13.45-7.27,27-10.67,40.56s-6.79,27.11-10.17,40.68q-2.53,10.17-5.06,20.34c-1.64,6.61-3.55,13.24-4,20.07s.47,13.93,1.06,20.83,1.17,13.89,1.77,20.83c1.22,13.88,2.39,27.78,3.9,41.64.19,1.73.37,3.47.55,5.2,0,.15.24.15.23,0-.92-13.9-1.88-27.79-3-41.67q-.82-10.41-1.69-20.82c-.58-6.93-1.38-13.88-1.6-20.83s1.06-13.73,2.75-20.51,3.33-13.27,5-19.91q5.1-20.34,10.16-40.68c3.77-15.19,7.53-30.41,10.85-45.7A.06.06,0,1,0,643,201Z" style="fill: rgb(38, 50, 56); transform-origin: 628.047px 306.089px;" class="animable" id="el2mvyddqu0wn"></path></g><g id="elygdqpaa7xb"><path d="M652.34,191s-13.53,53.06-23,90.41L611.29,191Z" style="fill: rgb(38, 50, 56); transform-origin: 631.815px 236.205px;" class="animable" id="elv16i5o4tmlr"></path></g><g id="el0m31xa3e2q9"><path d="M606.87,462.18c2.45.77,73.85-.77,76.46-2.51,1-.65-2.73-68.32-2.73-68.32l-44.68.87,2.16,45.28s-26.35,12.48-29,14.69S604.43,461.43,606.87,462.18Z" style="fill: rgb(235, 148, 129); transform-origin: 644.634px 426.867px;" class="animable" id="elumoh1bwapuj"></path></g><g id="el5midl2ck4ec"><path d="M606.87,462.19c2.44.76,73.85-.79,76.46-2.53.31-.19.24-6.88,0-16-13,2.17-59.88,9.27-63.48,7.16-2.51-1.48-.29-3.79,1.77-5.34-5.9,2.94-11.41,5.77-12.55,6.73C606.42,454.4,604.43,461.43,606.87,462.19Z" style="fill: rgb(38, 50, 56); transform-origin: 644.651px 453.024px;" class="animable" id="elsdfi0i63wpe"></path></g><g id="el4dm716i6hox"><path d="M610.45,191s2.4,30,7.34,37.53a75.19,75.19,0,0,1,12.31,6.13s3.06,80.25,3,85.07c-.2,18,4.41,105.84,4.41,105.84l44.83-.42s-4.65-99.31-4.67-105.91c0-6.39-3-46.68-5.75-81.62,0,0,4-11.16,3.54-16.79-1.07-13.67-7.19-29.82-7.19-29.82Z" style="fill: rgb(55, 71, 79); transform-origin: 646.395px 308.285px;" class="animable" id="elnnzlx59rz09"></path></g><g id="elcp0miqvo4hh"><path d="M626.22,219.54c-.16-1.12-.33-2.24-.5-3.36-.32-2.06-.74-4.1-1.1-6.15-.82-4.65-1.67-9.32-2.7-13.92a.1.1,0,0,0-.2,0c.18,1.86.39,3.72.66,5.57s.44,3.71.7,5.57c.52,3.67,1,7.35,1.66,11,.24,1.41,1.12,3.94-.91,4.37-1.6.35-2.78-1.23-3.25-2.55A31.11,31.11,0,0,1,619.5,215q-.5-2.79-.89-5.58c-.57-4.06-1.2-8.11-1.86-12.16,0-.11-.21-.08-.2,0a123.23,123.23,0,0,0,.9,12.44c.26,2,.55,3.94.89,5.91a20.79,20.79,0,0,0,1.36,5.51,4.45,4.45,0,0,0,3.35,2.69h.1a.12.12,0,0,0-.06.12c0,.66,0,1.32.08,2a18.24,18.24,0,0,0,.32,1.94,12.72,12.72,0,0,0,.5,1.93c.11.3.22.6.36.89a8,8,0,0,0,.52.82.12.12,0,0,0,.22-.07h0c0-.11,0-.22,0-.32v-.06h0a3.86,3.86,0,0,0,0-.58c0-.31-.11-.63-.18-.94-.14-.62-.31-1.25-.48-1.87s-.3-1.24-.46-1.86-.37-1.26-.52-1.91c0,0,0,0,0-.06a2.93,2.93,0,0,0,2.83-1.77A5,5,0,0,0,626.22,219.54Z" style="fill: rgb(38, 50, 56); transform-origin: 621.482px 213.787px;" class="animable" id="el3czsyc0gbyg"></path></g><g id="eldjfa3jkx6w"><path d="M633.73,236.15a37,37,0,0,0-4.22-2.78,41.29,41.29,0,0,0-4.81-2.49c-3.24-1.4-6.58-2.37-9.93-3.47-.1,0-.17.13-.07.17,3.24,1.29,6.35,3,9.48,4.53,1.54.76,3.1,1.47,4.67,2.17s3.14,1.5,4.75,2.09C633.73,236.42,633.82,236.23,633.73,236.15Z" style="fill: rgb(38, 50, 56); transform-origin: 624.209px 231.894px;" class="animable" id="elh1mvq1y5sqr"></path></g><g id="ely63nw6k0wdo"><path d="M659,210.61c-2.28,0-10.17-.57-12.5-3.19a16,16,0,0,1-2.92-5.26,51,51,0,0,1-1.77-6.4.09.09,0,0,0-.18,0,24.37,24.37,0,0,0,.92,7.26c.55,2,1.29,4.24,2.91,5.64a11.38,11.38,0,0,0,6.19,2.27,28.34,28.34,0,0,0,7.36-.11A.12.12,0,0,0,659,210.61Z" style="fill: rgb(38, 50, 56); transform-origin: 650.345px 203.395px;" class="animable" id="el8pus1a9qllx"></path></g><g id="el4s2gggg6gh"><path d="M605.09,211.23a7.65,7.65,0,0,0,3-1.83c1.72-2.6,2.14-10.85,2.29-13,0-.11.05-.07.05,0,0,2.43-.08,4.91-.28,7.26a25.91,25.91,0,0,1-.9,5.64c-.53,1.47-3.43,2.49-4.18,2.16C605,211.45,605,211.23,605.09,211.23Z" style="fill: rgb(38, 50, 56); transform-origin: 607.725px 203.927px;" class="animable" id="ellydtanbxbvd"></path></g><g id="eluvbnuz551we"><path d="M680.36,416.48c-2.63-.19-5.29-.16-7.92-.19s-5.27-.05-7.91,0c-5.27.05-10.54.13-15.81.28-1.44,0-2.89.09-4.33.15s-3.07.34-4.61.39a.1.1,0,0,0,0,.19c1.29,0,2.59.21,3.89.24s2.68.05,4,.05l7.91,0c5.27,0,10.54-.12,15.81-.33,3-.13,6-.16,8.94-.46A.14.14,0,0,0,680.36,416.48Z" style="fill: rgb(38, 50, 56); transform-origin: 660.108px 416.925px;" class="animable" id="el6qty2ckuj13"></path></g><g id="el4o5l62i6j1t"><path d="M674.89,410.64h0a.53.53,0,0,0,.52-.57L665.31,236.3c.13-.76,3-10.47,3.24-15.42.27-5.25-5.15-25.67-5.38-26.54a.56.56,0,0,0-.67-.39.55.55,0,0,0-.39.67c.06.21,5.61,21.13,5.35,26.2s-3.22,15.27-3.23,15.36,10.11,173.94,10.11,173.94A.56.56,0,0,0,674.89,410.64Z" style="fill: rgb(38, 50, 56); transform-origin: 668.752px 302.287px;" class="animable" id="el94dyeiuw6y4"></path></g><g id="elrto27ssojan"><path d="M600.65,157.49a2.61,2.61,0,0,0,1.37,2.36,18.5,18.5,0,0,0,2.25,1.18,77,77,0,0,1,0-8c.1-3.09.42-6.11.8-9.16,0-.05.08,0,.07,0-.16,3.09-.21,6.2-.29,9.29-.06,2.71.08,5.46,0,8.17.8.32,1.62.61,2.44.87,0-.94-.08-1.89-.1-2.83-.08-2.85.1-5.67.17-8.51,0-.07.1-.07.1,0,0,2.77.17,5.57.28,8.34,0,1.06.09,2.13.15,3.2.56.16,1.12.32,1.67.46l1.12.27c0-1.87,0-3.76.06-5.59,0-3,.26-5.91.34-8.87a.07.07,0,1,1,.14,0c-.06,2.94.08,5.91.09,8.86,0,1.89.09,3.83.08,5.75a44.72,44.72,0,0,0,15.09.32,68.49,68.49,0,0,0,8.6-1.82c.69-.18,2.43-.72,4.14-1.27,0-.9,0-1.79,0-2.65,0-2,0-4-.06-5.93,0,0,.07,0,.08,0,.16,2,.43,3.93.53,5.91,0,.79.1,1.62.13,2.45l1.73-.58c-.31-3.72-.18-7.51-.26-11.22,0-.09.11-.09.12,0,.25,3.64.73,7.32.79,11a5.68,5.68,0,0,0,1.13-.48c.84-.7-.16-15.39-.31-18.83-.28-6.39-1.83-32.41-3.91-38.49a18.9,18.9,0,0,0-11.2-12c-2.57-1-5.53-.67-8.24-.6-13.19.32-17.17,9.73-17.92,26.1-.29,6.32-.66,31-1,37.3C600.8,154.1,600.63,155.81,600.65,157.49Z" style="fill: rgb(38, 50, 56); transform-origin: 622.195px 126.537px;" class="animable" id="elzoh79stfceb"></path></g><g id="elc0gnhc11a7r"><path d="M607.9,179.91l-.17,17.52,62-4.69L664,179c-6-13.28-13.66-33.32-23.7-42.89-8-7.61-16.7-6.43-21.91-.41-1.32,1.53-14.16,23.07-15.38,31.69C602,175,607.9,179.91,607.9,179.91Z" style="fill: rgb(235, 235, 235); transform-origin: 636.312px 164.11px;" class="animable" id="elppsc23q85ai"></path></g><g id="elj1yqwvsxb2q"><path d="M620.64,177.26a23.13,23.13,0,0,0-5.83.84,30.85,30.85,0,0,0-2.91,1.05c-.49.2-1,.37-1.46.54a3.84,3.84,0,0,1-1.51.28s-.06.11,0,.12a5.93,5.93,0,0,0,1.39.16,6.18,6.18,0,0,0,1.39-.26c1-.28,2-.63,3-.93a53.34,53.34,0,0,1,6-1.52C620.71,177.52,620.73,177.25,620.64,177.26Z" style="fill: rgb(38, 50, 56); transform-origin: 614.808px 178.755px;" class="animable" id="ela07lxv8gp9b"></path></g><g id="elkookkogjvg"><path d="M629.7,179.31a56.22,56.22,0,0,0-7.45-.34c-1.24,0-2.48.14-3.72.29-.59.07-1.18.16-1.77.25s-1.28.3-1.93.39c-.07,0-.07.13,0,.12.62-.06,1.24,0,1.86,0l1.86-.08c1.24,0,2.48-.08,3.72-.14,2.48-.12,5-.21,7.44-.23C629.84,179.54,629.83,179.32,629.7,179.31Z" style="fill: rgb(38, 50, 56); transform-origin: 622.29px 179.489px;" class="animable" id="elkt99ag0ud0j"></path></g><g id="ela9p72nmz5i5"><path d="M631.81,131s-2.55,31.63,0,39.46,10,69.73,15.41,79.52,40.19,20.44,40.69,18.27-9.78-72.77-35.13-117.16C640.93,130.37,631.81,131,631.81,131Z" style="fill: #BA68C8; transform-origin: 659.302px 199.766px;" class="animable" id="eld0tlsx1p2dq"></path></g><g id="elqeqmll27cp"><path d="M630.9,133.24c-.12,1.13-4.5,8.9-9.55,9.28-1.65.12-2.7-8.83-2.7-8.83l-.23-.64-3.2-9,10-8.3,1.45-1.12s.72,2.52,1.57,5.67c0,.15.09.29.13.45s.1.34.14.51c.14.47.27,1,.4,1.43s.19.72.28,1.1.18.77.28,1.15A63.75,63.75,0,0,1,630.9,133.24Z" style="fill: rgb(235, 148, 129); transform-origin: 623.06px 128.576px;" class="animable" id="el7cl85lsn9tq"></path></g><g id="el90xlaxlsocb"><path d="M628.26,120.29a19.19,19.19,0,0,1-9.84,12.76l-3.2-9,10-8.3,1.45-1.12S627.41,117.14,628.26,120.29Z" style="fill: rgb(38, 50, 56); transform-origin: 621.74px 123.84px;" class="animable" id="el0mq7pgncalz"></path></g><g id="el09zbzhbuuwrv"><path d="M602.36,106.6c-3.77,16.34,5.6,20.44,9.12,21.25,3.2.73,14.19,2.83,19.62-13S630.13,92,622.9,90,606.12,90.26,602.36,106.6Z" style="fill: rgb(235, 148, 129); transform-origin: 617.306px 108.875px;" class="animable" id="eleai2xgkqvm"></path></g><g id="el3r9zerjbdnt"><path d="M605.22,105.77a11.12,11.12,0,0,0,1.16-.06,1.85,1.85,0,0,0,1.17-.29.6.6,0,0,0,.11-.72,1.48,1.48,0,0,0-1.39-.56,2.16,2.16,0,0,0-1.46.54A.64.64,0,0,0,605.22,105.77Z" style="fill: rgb(38, 50, 56); transform-origin: 606.178px 104.947px;" class="animable" id="eloc1opaj93s"></path></g><g id="elbzlgqjpla8n"><path d="M616.76,109a11.27,11.27,0,0,1-1.16,0,1.81,1.81,0,0,1-1.19-.2.61.61,0,0,1-.16-.71,1.46,1.46,0,0,1,1.34-.66,2.12,2.12,0,0,1,1.5.44A.63.63,0,0,1,616.76,109Z" style="fill: rgb(38, 50, 56); transform-origin: 615.769px 108.224px;" class="animable" id="el5g56htnsgo3"></path></g><g id="el64v64h1ievv"><path d="M607.21,108.87c0-.05-.1,0-.1.08-.12,1.14-.44,2.42-1.52,2.66,0,0,0,.07,0,.07C606.87,111.67,607.28,110,607.21,108.87Z" style="fill: rgb(38, 50, 56); transform-origin: 606.404px 110.265px;" class="animable" id="el22lajb6tk0v"></path></g><g id="el2erficmp89r"><path d="M606.36,107.55c-1.81-.38-2.44,3.25-.77,3.6S607.87,107.87,606.36,107.55Z" style="fill: rgb(38, 50, 56); transform-origin: 605.92px 109.348px;" class="animable" id="elbco5uzch877"></path></g><g id="elbor6ifnt5w"><path d="M605.56,107.66c-.32.14-.67.44-1,.4s-.63-.49-.82-.91c0,0-.05,0-.06,0-.14.69,0,1.46.6,1.71s1.14-.29,1.43-1C605.75,107.81,605.69,107.6,605.56,107.66Z" style="fill: rgb(38, 50, 56); transform-origin: 604.676px 108.036px;" class="animable" id="elycwac92l13r"></path></g><g id="el5l9lh5v13cf"><path d="M612.1,119.47c-.3.24-.61.58-1,.57a3,3,0,0,1-1.2-.4,0,0,0,0,0,0,0,1.52,1.52,0,0,0,1.38.76,1.22,1.22,0,0,0,1-.92A.06.06,0,0,0,612.1,119.47Z" style="fill: rgb(38, 50, 56); transform-origin: 611.09px 119.893px;" class="animable" id="elcwugof23zuc"></path></g><g id="ell1gdkhvcr4f"><path d="M608,114.66a25.13,25.13,0,0,0-.62,2.45c0,.07.18.14.44.19h0a3.82,3.82,0,0,0,3.89-.85.08.08,0,0,0-.1-.13,5.74,5.74,0,0,1-3.6.46c0-.23.94-2.8.81-2.83a6.86,6.86,0,0,0-1.87.14c.93-3.47,2.4-6.76,3.27-10.23,0-.12-.15-.19-.2-.08a58.32,58.32,0,0,0-4,10.86C605.94,115.09,607.67,114.75,608,114.66Z" style="fill: rgb(38, 50, 56); transform-origin: 608.88px 110.618px;" class="animable" id="elx6erygguo6"></path></g><g id="elir9tib24rfh"><path d="M608,117a4.62,4.62,0,0,0,1.51,1.8,2.1,2.1,0,0,0,1.22.34c.94,0,1.14-.86,1.13-1.6a5.1,5.1,0,0,0-.17-1.16A6,6,0,0,1,608,117Z" style="fill: rgb(38, 50, 56); transform-origin: 609.93px 117.761px;" class="animable" id="elw5oia42xl9"></path></g><g id="elfpua7ee985u"><path d="M609.47,118.82a2.1,2.1,0,0,0,1.22.34c.94,0,1.14-.86,1.13-1.6A2.14,2.14,0,0,0,609.47,118.82Z" style="fill: rgb(255, 154, 187); transform-origin: 610.645px 118.343px;" class="animable" id="el0mr5ebbqpm4"></path></g><g id="elrrisv86ik9"><path d="M616.94,110.29a3.75,3.75,0,0,0-.93-.3,3.27,3.27,0,0,0-1,0,2.79,2.79,0,0,0-1,.32,2.53,2.53,0,0,0-.79.74l-.36.55h.66a7.45,7.45,0,0,1,1.4.13,3,3,0,0,1,1.32.59,2.14,2.14,0,0,0-1.15-1.08,4.11,4.11,0,0,0-1.59-.33l.3.54a2.38,2.38,0,0,1,1.32-.88A7.92,7.92,0,0,1,616.94,110.29Z" style="fill: rgb(38, 50, 56); transform-origin: 614.9px 111.136px;" class="animable" id="elc4g431kwsji"></path></g><g id="elcafsbmx1mn9"><path d="M614.82,112.74a6.52,6.52,0,0,1-1.38-.67c-.09-.08-.47-.41-.44-.49a3,3,0,0,1,.32-.68,1.82,1.82,0,0,0-.46.65,1,1,0,0,0,.45.7A3.06,3.06,0,0,0,614.82,112.74Z" style="fill: rgb(38, 50, 56); transform-origin: 613.84px 111.82px;" class="animable" id="elt8qtclzg6d"></path></g><g id="elhhbf2rqfp3"><path d="M630,115.46c-3.19,0-3.16-7.24-3.16-7.24s-10.81-2.16-12.7-13.44a20.88,20.88,0,0,1-10.74,7.63S605.25,90.53,615,89.3c0,0,12.23-2.92,17.76,7.15S632.14,115.43,630,115.46Z" style="fill: rgb(38, 50, 56); transform-origin: 619.204px 102.183px;" class="animable" id="el9yq1xiib8fe"></path></g><g id="el1onnhmoa38b"><path d="M614.23,94a11.87,11.87,0,0,0,.42,5A12.42,12.42,0,0,0,617,103.5a11,11,0,0,0,.87.94l.45.46c.16.14.33.27.5.4.34.26.67.53,1,.78s.73.43,1.1.64c.19.11.37.22.56.31l.58.25,1.17.5c.8.25,1.62.47,2.43.66-.77-.36-1.55-.64-2.29-1l-1.09-.58-.55-.28-.51-.35c-.34-.24-.67-.47-1-.69s-.62-.52-.93-.78l-.47-.39-.42-.44c-.27-.31-.58-.57-.82-.9a14.31,14.31,0,0,1-2.41-4.21,14.89,14.89,0,0,1-.67-2.37A14.51,14.51,0,0,1,614.23,94Z" style="fill: rgb(38, 50, 56); transform-origin: 619.896px 101.22px;" class="animable" id="elee4yri534qf"></path></g><g id="elfdvwnhey1ul"><path d="M628.22,115.47s4.35-4.68,6.52-3-1.61,8.75-4.52,9.39a2.83,2.83,0,0,1-3.55-2Z" style="fill: rgb(235, 148, 129); transform-origin: 631.027px 117.042px;" class="animable" id="el7gnzxn2yq4q"></path></g><g id="el1iu9g2wjuiz"><path d="M633.6,114.43a0,0,0,0,1,0,.08c-2.05.51-3.32,2.16-4.3,3.92a1.57,1.57,0,0,1,2.38-.09s0,.11-.06.09a1.76,1.76,0,0,0-2,.34,8.63,8.63,0,0,0-1.13,1.41c-.11.16-.41,0-.32-.17l0,0C628.51,117.49,630.92,114.31,633.6,114.43Z" style="fill: rgb(38, 50, 56); transform-origin: 630.877px 117.336px;" class="animable" id="elj0quvmemnud"></path></g><g id="elulgbz38294"><path d="M618.38,133.08l3.33,7.49,9.1-9.95,2.79,3s-8.7,15.61-8.78,14.92l-3.37-6.44-4.36,4.72,0-11.46Z" style="fill: rgb(235, 235, 235); transform-origin: 625.345px 139.591px;" class="animable" id="eluuxkri4qy4e"></path></g><g id="el0ld1zt713mh"><path d="M616.75,141.15c.06-1.9.06-3.8.21-5.69,0-.07.11-.1.13,0,.44,1.81.18,9,.25,10.77l0,0c.18-.21,4-4.16,4.09-4.1.72,1,3.19,5.7,3.36,6.13,1.37-2.48,7.24-12.27,8.88-14.62,0-.07.16,0,.12.06-1.2,2.61-8.76,15.52-8.88,15.49a75.19,75.19,0,0,1-3.52-6.81c-.65.85-4.54,5.3-4.56,5A61.28,61.28,0,0,1,616.75,141.15Z" style="fill: rgb(38, 50, 56); transform-origin: 625.251px 141.4px;" class="animable" id="el0kru17keucxd"></path></g><g id="elukgzsmbupo"><path d="M643.81,142.55c9,16.72,19.17,45.17,16.32,50.48-7.15,13.3-24,27.19-31.84,31.74-4.57,2.65-19.77-20.78-15.83-23.34,6.22-4,22.58-18,24.55-19.85,1-1-2.11-21.1-3-34.41C633.11,132.71,639.42,134.4,643.81,142.55Z" style="fill: rgb(235, 148, 129); transform-origin: 636.216px 180.662px;" class="animable" id="elh6kbpahcrgs"></path></g><g id="el5ft9tlwrquf"><path d="M601,214.76c1-1.54.17-2.06-2.88-1s-14.19,8-16.26,3.88,13.78-13.58,19-15S615,200.78,615,200.78C612.28,203.25,606.26,209.86,601,214.76Z" style="fill: rgb(235, 148, 129); transform-origin: 598.337px 209.857px;" class="animable" id="eldhl00ml51h"></path></g><g id="el0fo43ox9g7ig"><rect x="573.86" y="157.89" width="10.66" height="66.98" style="fill: rgb(199, 199, 199); transform-origin: 579.19px 191.38px; transform: rotate(142.38deg);" class="animable" id="elmnd85dnew3b"></rect></g><polygon points="560.71 210.25 573.48 200.41 573.48 200.41 546.97 166.01 546.97 166.01 534.2 175.85 534.2 175.85 560.71 210.25" style="fill: rgb(38, 50, 56); transform-origin: 553.84px 188.13px;" id="elf3dcx7n3088" class="animable"></polygon><g id="el8o1czc7bjwm"><g style="opacity: 0.2; transform-origin: 522.542px 111.672px;" class="animable" id="elfv8spqxgyg9"><g id="elxqhbziou6c"><path d="M507,167.81a58.25,58.25,0,1,1,44.19-5.42A58.24,58.24,0,0,1,507,167.81Z" style="fill: rgb(255, 255, 255); transform-origin: 522.542px 111.672px;" class="animable" id="elxazvuskca5"></path></g></g></g><g id="el24on2c04r6b"><path d="M504.41,177.28A68,68,0,1,1,588.13,130,68.07,68.07,0,0,1,504.41,177.28Zm2.09-7.51a60.2,60.2,0,1,0-41.87-74.13A60.27,60.27,0,0,0,506.5,169.77Z" style="fill: rgb(55, 71, 79); transform-origin: 522.621px 111.756px;" class="animable" id="elcc5nso6db0l"></path></g><g id="el5sf8eyvpelx"><path d="M591.71,100.3a70,70,0,1,0-1.62,30.22A70,70,0,0,0,591.71,100.3ZM494,61.14a58.09,58.09,0,1,1-27.45,35.05A57.81,57.81,0,0,1,494,61.14Z" style="fill: rgb(38, 50, 56); transform-origin: 522.653px 111.751px;" class="animable" id="ell901gick3lk"></path></g><g id="el9er1fvh0snh"><path d="M479.55,133.16a44.61,44.61,0,0,1-5-17.8,48.62,48.62,0,0,1,.21-9.49,50.65,50.65,0,0,1,2.15-9.35,46.4,46.4,0,0,1,9.89-16.45A51.49,51.49,0,0,1,502,68.83,92.51,92.51,0,0,0,489.18,82a57.11,57.11,0,0,0-4.89,7.54,47.51,47.51,0,0,0-3.59,8.14,57.16,57.16,0,0,0-3,17.48A75.26,75.26,0,0,0,479.55,133.16Z" style="fill: rgb(255, 255, 255); transform-origin: 488.205px 100.995px;" class="animable" id="el72jwodj6sct"></path></g><g id="elscgqdafzdni"><path d="M568.32,105.38a44.49,44.49,0,0,1-.06,18.49,47.29,47.29,0,0,1-2.8,9.07,50.6,50.6,0,0,1-4.61,8.41,46.68,46.68,0,0,1-14,13.12,51.47,51.47,0,0,1-17.72,6.65,91.77,91.77,0,0,0,16-9.19,57.1,57.1,0,0,0,6.77-5.91,47.53,47.53,0,0,0,5.67-6.85,57.46,57.46,0,0,0,7.69-16A74.74,74.74,0,0,0,568.32,105.38Z" style="fill: rgb(255, 255, 255); transform-origin: 549.196px 133.25px;" class="animable" id="el5mojdj6t1g7"></path></g><g id="elwrf4vblz8j"><path d="M630.85,222.65c-7.91,6.67-17.34,15.45-28.84,17.4a5.76,5.76,0,0,1-3.75-.52c-5.14,1-7.14-1.17-7.14-1.17-5.06-.56-6.81-3-6.81-3s-6,1.07-7.3-2.47c-1.42-4,7.35-4.7,11.93-8.05,10.49-7.68,23.25-21.52,26-24Z" style="fill: rgb(235, 148, 129); transform-origin: 603.853px 220.501px;" class="animable" id="elkjt2i5ecq"></path></g><g id="elocicbtnrzg"><path d="M605.58,224.49a83.08,83.08,0,0,1-9.56,6.2,83.85,83.85,0,0,1-11.64,4.51.1.1,0,0,0,0,.2,44.12,44.12,0,0,0,21.25-10.77C605.82,224.5,605.74,224.38,605.58,224.49Z" style="fill: rgb(38, 50, 56); transform-origin: 595.01px 229.923px;" class="animable" id="el2ynbfd8gjq5"></path></g><g id="elgsy9wy4jf0d"><path d="M611.13,230.15c-3.16,2-8.75,5.39-20,8.09a0,0,0,0,0,0,.07,39.72,39.72,0,0,0,20.13-8C611.41,230.16,611.34,230,611.13,230.15Z" style="fill: rgb(38, 50, 56); transform-origin: 601.235px 234.2px;" class="animable" id="elc3r2iimaks"></path></g><g id="el14k71xcuyyt"><path d="M614.06,233.24c-5.51,3.14-9.38,4.43-15.78,6.25,0,0,0,.08,0,.07,7.49-1.31,10.06-2.63,15.9-6.14C614.39,233.3,614.27,233.12,614.06,233.24Z" style="fill: rgb(38, 50, 56); transform-origin: 606.285px 236.381px;" class="animable" id="el1pgcagu4231"></path></g><g id="elxj0cu0v7s2"><path d="M634.26,226.05,614.2,198l21.49-16.83c-1.31-10.89-3.93-32.67-3.7-40.33.26-9,6.52-9.4,11.38-1.63,11.13,17.77,21.91,50,21.06,55.15C663.23,201.79,634.26,226.05,634.26,226.05Z" style="fill: #BA68C8; transform-origin: 639.339px 179.882px;" class="animable" id="elwvim4cy7u"></path></g><g id="el0a84ix9xzynf"><path d="M636.35,219.31c-.92-1.95-6-9.3-7.26-11.12s-6.67-8.93-8-10.79c-.07-.1-.24,0-.17.08,1.28,1.86,6.12,9.41,7.38,11.23s6.4,9.1,7.94,10.67A.06.06,0,0,0,636.35,219.31Z" style="fill: rgb(38, 50, 56); transform-origin: 628.632px 208.384px;" class="animable" id="eljjcr76uuub"></path></g><g id="elu6na87zrtb9"><path d="M640.05,221.05c7.73-7.34,15.71-14.61,22.2-23.09a11.13,11.13,0,0,0,1.84-3.4,19.47,19.47,0,0,0-.89-6.44c-3.8-13.73-9.65-26.8-14.87-40q4.75,9.6,8.78,19.54c2.11,5.65,9.74,23.35,7.07,28.39-2.24,3.91-5.49,7.11-8.55,10.35-5,5.1-10.23,10-15.58,14.69Z" style="fill: rgb(38, 50, 56); transform-origin: 652.395px 184.605px;" class="animable" id="elpxmco67t1p"></path></g><g id="elgsazuwojfw8"><path d="M650.48,152.77a29,29,0,0,1-.81-3.31,7.42,7.42,0,0,1,.81,3.31Z" style="fill: rgb(38, 50, 56); transform-origin: 650.075px 151.115px;" class="animable" id="elg0th06edk2r"></path></g><g id="el9t2h2hbnwbk"><path d="M633,155.17c1,7.33,2.2,15.83,3,23.21.09.94.2,1.83.2,2.79a.65.65,0,0,1-.19.45c-5,4.44-11,8.54-16.31,12.52L614.21,198v-.07l.49.8-.57-.74,0,0,0,0,5.22-4.17c5.11-4.13,11-8.43,15.87-12.74,0,0,0,0,0,0a.33.33,0,0,0,0,.14c0-.32,0-.65-.07-1-.73-8.15-1.9-16.79-2.14-25Z" style="fill: rgb(38, 50, 56); transform-origin: 625.165px 176.95px;" class="animable" id="elp72ckua6vg"></path></g><g id="eldogziwz1rz"><path d="M632.31,156.67c.5,1.15.77,2.42,1.17,3.6a8.59,8.59,0,0,1-1.17-3.6Z" style="fill: rgb(38, 50, 56); transform-origin: 632.895px 158.47px;" class="animable" id="elmgylr5m0w4"></path></g><g id="el3orr4gsn2sg"><path d="M583,197.58c.1-3.55-4.14-1.64-4.14-1.64s5.45-4.21,4.14-7.91-6.31-1.08-6.67-.91c.29-.22,5.19-4.23,3.49-7.81s-6.39-.36-6.69-.14c.2-.3,2.82-4.28.92-6.7-3.28-4.17-11.72,6.56-16,7.14L552.45,174a10.72,10.72,0,0,1,.18,6c-.67,2.9-1.14,4.82-.69,6.63a3.9,3.9,0,0,0,3.49,3.06s-2.53,2.78-1.29,5.64c.64,1.46,3.56,1.74,3.56,1.74s-1.94,2.31-.67,4.79c1,2,3.77,1.95,3.77,1.95s-.83,3.08.85,4.77C565,212,582.8,205.17,583,197.58Z" style="fill: rgb(235, 148, 129); transform-origin: 567.483px 190.498px;" class="animable" id="elihyvswgey9"></path></g><g id="elkkri6enqmr8"><path d="M556.61,178.51l-4.07-4.42-.56-.38c-6.53-4.05-15.81-.79-12.17,3.34,2.77,3.15,9.81,2.08,12.18,5.71h0Z" style="fill: rgb(235, 148, 129); transform-origin: 547.8px 177.308px;" class="animable" id="el0h0jw9dogjdu"></path></g><g id="elggp15oa9cja"><path d="M561.24,203.87a.05.05,0,0,0,0,.1,33,33,0,0,0,17.88-8.11c.16-.15,0-.46-.21-.33A67.59,67.59,0,0,1,561.24,203.87Z" style="fill: rgb(38, 50, 56); transform-origin: 570.188px 199.734px;" class="animable" id="elnjn01rffxhe"></path></g><g id="eladsoxc8e9oc"><path d="M557.63,197.14c-.07,0,0,.14,0,.13,6.58-.88,14.11-4.3,19-10.06.16-.2.12-.54-.09-.33C573,190.47,563.54,195.44,557.63,197.14Z" style="fill: rgb(38, 50, 56); transform-origin: 567.163px 192.042px;" class="animable" id="elsn9qq36ldns"></path></g><g id="elwk33ucodmze"><path d="M573.37,178.65c-4.86,5.34-10.94,8.59-17.66,11-.09,0,0,.15,0,.15,3.62-.3,7.74-2.3,10.82-4.12a19,19,0,0,0,7-6.88C573.62,178.71,573.47,178.54,573.37,178.65Z" style="fill: rgb(38, 50, 56); transform-origin: 564.614px 184.207px;" class="animable" id="el42bacwfaw9z"></path></g></g><g id="freepik--character-1--inject-9" class="animable" style="transform-origin: 207.254px 367.212px;"><g id="elxf93vrbh2yi"><path d="M357,461.15c-2.6,1-78,1.86-81,.16-.32-.19-.21-3.52-1.27-12.14-.05-.41-1.76-2-4.43-4.29-10-8.52-33.62-26.5-33.62-26.5l37.85-32.46L310.81,422l9.43,9.39S351,448.24,354,450.46,359.61,460.17,357,461.15Z" style="fill: rgb(235, 148, 129); transform-origin: 297.376px 424.098px;" class="animable" id="el813ydwl9e2"></path></g><g id="eldq82azt8kga"><path d="M357,461.15c-2.61,1-78,1.86-81,.16-.32-.19-.21-3.52-1.27-12.14,0-.41-1.76-2-4.43-4.29-3.49-3-5.15-4.32-10.34-8.42l48-17.28,2.85,2.84,9.42,9.38S351,448.24,354,450.46,359.62,460.17,357,461.15Z" style="fill: rgb(235, 235, 235); transform-origin: 309.018px 440.728px;" class="animable" id="elocck39ufluh"></path></g><g id="elo4kf8nnnjog"><path d="M362.2,462.23c-2.62.89-83,1.25-85.88-.55-.68-.43-1.27-5.1-1.73-11.49,0-.81-8.15-7.37-9.26-8.58l49.36-16.27,6.18,5.9S357,448.34,360,450.65,364.83,461.33,362.2,462.23Z" style="fill: #BA68C8; transform-origin: 314.398px 444.153px;" class="animable" id="elklv8tblfhom"></path></g><g id="els3oblt463y"><path d="M361.11,459.22c-12.63-.25-68.64-.07-81.14.65-.1,0-.1.07,0,.07,12.51.52,68.52-.07,81.14-.51C361.37,459.42,361.37,459.22,361.11,459.22Z" style="fill: rgb(38, 50, 56); transform-origin: 320.6px 459.628px;" class="animable" id="el167dja7u03q"></path></g><g id="elaifyet1htl8"><path d="M324.88,431.79c-5-.9-11-.1-14.82,3.46-.15.13.05.34.21.29a70,70,0,0,1,14.59-3.12A.32.32,0,0,0,324.88,431.79Z" style="fill: rgb(38, 50, 56); transform-origin: 317.571px 433.499px;" class="animable" id="ellz9h0lx41z9"></path></g><g id="eljvc9u1ed37i"><path d="M328.48,433.94c-5-.91-11.05-.11-14.82,3.45-.15.14,0,.34.21.29a69.73,69.73,0,0,1,14.59-3.12A.31.31,0,0,0,328.48,433.94Z" style="fill: rgb(38, 50, 56); transform-origin: 321.19px 435.641px;" class="animable" id="el5gcqk059v6j"></path></g><g id="elt3yk8mljnsg"><path d="M332.08,436.08c-5-.9-11.05-.11-14.83,3.45-.14.14.06.34.22.29a69.71,69.71,0,0,1,14.59-3.11A.32.32,0,0,0,332.08,436.08Z" style="fill: rgb(38, 50, 56); transform-origin: 324.769px 437.783px;" class="animable" id="ely32zpw2i53e"></path></g><g id="elp7fy0uqgg6q"><path d="M335.67,438.22c-5-.9-11-.11-14.82,3.45-.15.14,0,.35.21.3a70,70,0,0,1,14.6-3.12A.32.32,0,0,0,335.67,438.22Z" style="fill: rgb(38, 50, 56); transform-origin: 328.359px 439.928px;" class="animable" id="el5jg0bohikay"></path></g><g id="eljy7678qe1fk"><path d="M334,420.26c-2-2.68-5.6-1.45-7.66.3A26.43,26.43,0,0,0,318.75,432c0,.1,0,.16.11.18a.63.63,0,0,0,.79.62c4.09-1.54,8.66-2.68,12.16-5.43C333.85,425.74,335.86,422.79,334,420.26Zm-8.62,8.91c-2,.81-4,1.51-6,2.39,1.49-2.22,2.87-4.5,4.58-6.57a29.61,29.61,0,0,1,2.62-2.86c1.47-1.35,7.31-4.24,6.46,1.21C332.58,426.35,327.75,428.21,325.38,429.17Z" style="fill: rgb(38, 50, 56); transform-origin: 326.743px 425.761px;" class="animable" id="el4ox7icibijq"></path></g><g id="el5fn7qqbgmyn"><path d="M306.11,430.75c4.11,1.72,8.81,1.61,13.17,2a.62.62,0,0,0,.59-.8.14.14,0,0,0,.07-.21,26.54,26.54,0,0,0-10.35-9c-2.46-1.15-6.28-1.37-7.47,1.74C301,427.43,303.72,429.74,306.11,430.75Zm-2.26-3.53c-2.26-5,4.13-3.8,5.91-2.88A28.63,28.63,0,0,1,313,426.4a77.38,77.38,0,0,1,6.16,5.12c-2.13-.33-4.26-.47-6.4-.72C310.25,430.51,305.1,430,303.85,427.22Z" style="fill: rgb(38, 50, 56); transform-origin: 310.912px 427.355px;" class="animable" id="el89ju6pp8ptk"></path></g><g id="elyvmmgjnw7na"><path d="M311.34,420l-46.68,23.81s-48.19-44.2-52.63-44.55-67.26,48.91-100.09,48.84c-34-.08-35.5-35.72-35.5-35.72l49.68-11.06c35.87-17.4,70.64-54.25,95-51.14C247.54,353.58,311.34,420,311.34,420Z" style="fill: rgb(38, 50, 56); transform-origin: 193.89px 399.047px;" class="animable" id="elh3hwke99ag"></path></g><g id="elswts0s2qtuo"><path d="M300,413.8c-7.88,3.83-5.67,2.63-13.51,6.54-3.84,1.92-23.14,11.5-26.42,13.89a.09.09,0,0,0,.07.15c3.86-1.27,22.95-11.26,26.75-13.25,7.77-4.06,5.49-3,13.22-7.11A.12.12,0,0,0,300,413.8Z" style="fill: rgb(55, 71, 79); transform-origin: 280.113px 424.084px;" class="animable" id="elxb3bvuki4t"></path></g><g id="elpxh0ztecen"><path d="M256.49,432.66c-9.05-8.08-38.68-34.39-39.89-35.37a16.25,16.25,0,0,0-3.08-2.34,3.29,3.29,0,0,0-2.88.21c-1.38.63-2.73,1.33-4.1,2-2.7,1.29-53.88,31.58-64.76,37-9.93,5-21.37,6.23-32.41,7.5-1.36.16-2.73.29-4.09.41-.1,0-.1.16,0,.16a130.68,130.68,0,0,0,31.9-5.72c10.47-3.15,66.26-37.14,71.65-39.73,1.22-.59,3-1.87,4.35-1.22a7.74,7.74,0,0,1,1.6,1.19l1.77,1.5c2.29,1.93,38.62,33.63,39.81,34.55C256.45,432.85,256.57,432.74,256.49,432.66Z" style="fill: rgb(55, 71, 79); transform-origin: 180.861px 418.472px;" class="animable" id="elzsibj8ecdvi"></path></g><g id="eljw4nkwmdsmq"><path d="M300.92,425.34l-36.26,18.49s-48.19-44.2-52.63-44.55-67.26,48.91-100.09,48.84c-34-.08-35.5-35.72-35.5-35.72l49.68-11.06c10.57-5.12,21-11.94,31.17-18.93Z" style="opacity: 0.1; transform-origin: 188.68px 415.265px;" class="animable" id="elmhj9fioys9j"></path></g><g id="elj0o1c59vwy"><path d="M75.39,410.31S74,446.41,91,457.85s134.39,1.42,151.8-5.63,15.9-35.88-4.08-41.13c-19-5-98.12-2.38-100.12-3-.5-.16,6.66-5.18,6.6-5.45l-18.34-4.19Z" style="fill: rgb(38, 50, 56); transform-origin: 165.111px 430.746px;" class="animable" id="eli0z0zxtbr1i"></path></g><g id="el5tx72rcpz06"><path d="M101.55,411.35c0-.14-.25-.08-.24,0a15.82,15.82,0,0,1-3,10.46c-2.5,3.35-6.4,5.41-9.92,7.52-.33.2,0,.73.33.6A32.7,32.7,0,0,0,95,426.74a16,16,0,0,0,4.56-4.38A13.93,13.93,0,0,0,101.55,411.35Z" style="fill: rgb(55, 71, 79); transform-origin: 95.0922px 420.608px;" class="animable" id="elj6zp5s3etc"></path></g><g id="eleskyn9uzi4w"><path d="M137,404.78c-.89-1-1.85-1.9-2.77-2.85-2.18-2.25-4.37-4.5-6.65-6.66-.21-.2-.58.14-.38.36,1.55,1.75,3.19,3.44,4.79,5.14l2.48,2.61a17,17,0,0,1,2.33,2.54,1.36,1.36,0,0,1-1.09,2.11,3.72,3.72,0,0,1-2.64-.76,34.9,34.9,0,0,1-4.69-4.33l-2.75-2.66c-1-.94-2-1.81-3-2.74-.07-.06-.17,0-.12.1.88,1,1.7,2.12,2.57,3.16s1.77,2.06,2.67,3.07,1.73,1.9,2.63,2.81a9.88,9.88,0,0,0,2.61,2c1.59.79,4.25.79,4.92-1.24A2.79,2.79,0,0,0,137,404.78Z" style="fill: rgb(55, 71, 79); transform-origin: 130.231px 402.19px;" class="animable" id="elxfi0kj9sl"></path></g><g id="ellzll9xezx2d"><path d="M240.35,452.5c-6.13.56-12.24,1.36-18.37,1.94s-12.17,1-18.27,1.43q-18.36,1.15-36.78,1.22c-12.4,0-25.79-.22-38.17-1-5.92-.39-11.91-.64-17.8-1.47a27.79,27.79,0,0,1-14.39-6.08c-8.5-7.13-12.4-18.22-14.45-28.94-.28-1.44-.52-2.88-.74-4.33,0-.1-.17-.09-.15,0,1.52,11,4.08,22.47,11.69,30.88a27.83,27.83,0,0,0,12,8c5.65,1.8,11.78,1.88,17.63,2.24,12.42.78,25.87,1.1,38.31,1.17s25-.24,37.55-1,25-1.8,37.41-3.31c1.52-.19,3-.39,4.55-.63A.07.07,0,0,0,240.35,452.5Z" style="fill: rgb(55, 71, 79); transform-origin: 160.812px 436.384px;" class="animable" id="elnrr0187u808"></path></g><g id="el0ort76fyd09n"><path d="M198.22,408.14c-3.9-.29-7.8-.57-11.71-.69s-7.91-.19-11.87-.24c-7.82-.1-15.66-.12-23.49.08-4.44.11-8.87.41-13.3.78a.11.11,0,0,0,0,.22c7.85.14,15.68.07,23.53,0s15.66.08,23.49.26c4.44.1,8.87.1,13.31.14C198.53,408.72,198.55,408.16,198.22,408.14Z" style="fill: rgb(55, 71, 79); transform-origin: 168.098px 407.914px;" class="animable" id="ello4437ipn4r"></path></g><g id="elud2rn5yynn"><path d="M146.07,402.16a61,61,0,0,0-8.6,5.43,73.17,73.17,0,0,0-7.86,6.4c-.07.07,0,.15.1.11,2.94-1.62,5.73-3.59,8.5-5.48a83.83,83.83,0,0,0,8.08-6.06C146.47,402.4,146.32,402,146.07,402.16Z" style="fill: rgb(55, 71, 79); transform-origin: 137.975px 408.117px;" class="animable" id="ele8lbqktl2eh"></path></g><g id="el4aytoia4emq"><path d="M114.25,349.12c21.18,7.57,42.22,8.58,48.21,7.13,7.57-1.83,33.76-28.19,34.93-29.65,2.87-3.62-20.91-23.15-24.14-19.41-4.92,5.71-20.95,26.11-23.23,26.58s-16.38,1.93-36.45,3.06C99.71,337.61,101.11,344.43,114.25,349.12Z" style="fill: rgb(173, 99, 89); transform-origin: 150.7px 331.764px;" class="animable" id="elwv59nmu875h"></path></g><g id="el56lycwq76ih"><path d="M207.79,314.67c-2.71,5.6-12.74,14.87-16,16.18S172.15,315.63,172.63,312s11.08-21.74,16.81-24.46S210.61,308.87,207.79,314.67Z" style="fill: rgb(173, 99, 89); transform-origin: 190.375px 309.125px;" class="animable" id="elnkkdlup5exn"></path></g><g id="el9jtta0tu7n"><path d="M181.46,293.54c1.87,2.72,4,1,4,1s-4.54,4.5-2.92,7.76,5.94.28,6.26.08c-.24.24-4.31,4.49-2.34,7.6s5.94-.39,6.19-.63c-.15.3-2.12,4.27-.09,6.29,3.5,3.48,8.81-6.53,12.67-7.54,0,0,2.45,6.35,2.56,6.52,0,0,5.25-9.42,3.59-14.55a3.45,3.45,0,0,0-3.56-2.43s2-2.85.55-5.34c-.75-1.28-3.48-1.21-3.48-1.21a4.31,4.31,0,0,0,.08-4.49c-1.15-1.71-3.7-1.37-3.7-1.37s10-10.17,7.67-13.12c-4.07-5.06-24.32,17.9-27.17,17.59C180.36,289.6,180.65,292.36,181.46,293.54Z" style="fill: rgb(173, 99, 89); transform-origin: 196.243px 293.876px;" class="animable" id="ela4ja9925k1e"></path></g><g id="el2vpj31s9lcj"><path d="M200.86,285.27a0,0,0,0,0,0-.09,30.71,30.71,0,0,0-15.58,9.51c-.13.15-.22,1.06-.07.9C189,291.57,195,287.79,200.86,285.27Z" style="fill: rgb(38, 50, 56); transform-origin: 192.996px 290.394px;" class="animable" id="elsgtcmq4hsc"></path></g><g id="eljysig6ch6w"><path d="M205,291.07c.07,0,0-.13,0-.12a28.77,28.77,0,0,0-16.35,11.43c-.13.2-.05.51.12.29C191.5,299,199.69,293.31,205,291.07Z" style="fill: rgb(38, 50, 56); transform-origin: 196.808px 296.848px;" class="animable" id="el2yu8otishuw"></path></g><g id="eltyo0dltvkig"><path d="M192.53,309.9c3.87-5.47,9.11-9.15,15-12.16.08,0,0-.14-.06-.13-3.3.68-6.88,3-9.51,5a17.67,17.67,0,0,0-5.66,7.13C192.29,309.88,192.44,310,192.53,309.9Z" style="fill: rgb(38, 50, 56); transform-origin: 199.932px 303.773px;" class="animable" id="elz1goch67z7"></path></g><g id="el78p6yfg88id"><path d="M185.35,294.58c-.15.18.58.2.44.39-1.57,2-4.2,5.84-2.83,7.49,1.11,1.32,3.65.76,4.54.16l2.24-1.51-1.58,2.2a11.17,11.17,0,0,0-1.62,3.19,4,4,0,0,0,.19,3.23,2.27,2.27,0,0,0,2.62,1.11,6.83,6.83,0,0,0,2.91-1.8l2.3-2.24-1.43,2.85a10,10,0,0,0-.88,2.5,4.37,4.37,0,0,0,.1,2.47,2.06,2.06,0,0,0,1.73,1.28,4.66,4.66,0,0,0,2.37-.87,36.28,36.28,0,0,0,4.25-3.56c.69-.64,1.39-1.27,2.11-1.88a6.78,6.78,0,0,1,2.42-1.44,7.24,7.24,0,0,0-2.24,1.64c-.67.65-1.31,1.33-2,2a30.61,30.61,0,0,1-4.16,3.87,5.31,5.31,0,0,1-2.81,1.13,2.9,2.9,0,0,1-2.62-1.78,5.29,5.29,0,0,1-.21-3.06,11.26,11.26,0,0,1,.94-2.8l.86.61a7.83,7.83,0,0,1-3.42,2.16,3.25,3.25,0,0,1-2.21-.15,3.75,3.75,0,0,1-1.61-1.49,5,5,0,0,1-.24-4.09,12.23,12.23,0,0,1,1.84-3.48l.66.68c-1.16.73-3.93,1.67-5.9-.16C180,300.46,184.46,295.44,185.35,294.58Z" style="fill: rgb(38, 50, 56); transform-origin: 193.39px 305.685px;" class="animable" id="el078gk73tkex"></path></g><g id="el1jq2fsy1jgkh"><path d="M172.63,312s-1.54-17.14,1.94-21.81,16.35-3.65,21-2.53c6.39,1.54,4.64,6,1.34,7.3-3.82,1.54-10.08,1.86-10.51,1.88,0,0,5.28,8.6,2,15.16S172.63,312,172.63,312Z" style="fill: rgb(173, 99, 89); transform-origin: 186.083px 300.815px;" class="animable" id="elbjt1xhdo04r"></path></g><g id="elqn9o3dw5od"><path d="M186.26,286.76a36.34,36.34,0,0,1,7.87,0c2,.24,4.38.65,5.8,2.37,4.31,6.93-9.05,9-13.6,8.61l.77-1.42a15.73,15.73,0,0,1,1.74,3.48,15.37,15.37,0,0,1,0,11.09A18.49,18.49,0,0,0,184.64,296h1.8c3-.07,12-.91,12.55-4.53a2.72,2.72,0,0,0-1.61-2.3c-3.35-1.59-7.4-1.87-11.12-2.41Z" style="fill: rgb(38, 50, 56); transform-origin: 192.707px 298.718px;" class="animable" id="eli2qnrrqpv2f"></path></g><g id="el11na6199d8mr"><path d="M168.23,310.43l23,28.61s-22.74,18.73-30.42,20.12-34.34-4.17-48.32-8.79-12.57-14-1.38-14.71,38.56-2.92,39.46-3.45S168.23,310.43,168.23,310.43Z" style="fill: #BA68C8; transform-origin: 146.796px 334.904px;" class="animable" id="elkn1gdg6t07n"></path></g><g id="el73ihzy15zp9"><path d="M177.11,332.61c-2.55-3.2-5.07-6.42-7.74-9.53-1.51-1.76-3-3.54-4.55-5.29-.06-.06-.18,0-.12.1,2.43,3.31,4.87,6.63,7.45,9.83s5.11,6.39,7.72,9.55q2.22,2.69,4.61,5.23s.09,0,.07-.05C182.22,339.05,179.68,335.83,177.11,332.61Z" style="fill: rgb(38, 50, 56); transform-origin: 174.618px 330.133px;" class="animable" id="elob5w77xbbl"></path></g><g id="elas0vvqmex2g"><path d="M139.73,357.16a229.81,229.81,0,0,1-27.27-6.79c-13.87-4.59-12.58-14-1.38-14.71.84-.05,1.78-.11,2.8-.19Z" style="opacity: 0.1; transform-origin: 121.049px 346.315px;" class="animable" id="elqh0c7mp5h9r"></path></g><g id="elmme3lccnomc"><path d="M73.22,416.65c.18.18,67.17-14.8,67.79-15.58.87-1.11-11.34-51.48-24-66.48-3.17-3.74-13.24-3.44-17.73.38C77,353.89,72.58,416,73.22,416.65Z" style="fill: #BA68C8; transform-origin: 107.108px 374.295px;" class="animable" id="el3nrtmuyuhoo"></path></g><g id="elqkvukhnsvij"><path d="M94,338.6c-13.33,10.34-48.39,52.08-41,61.92s57.89,6.33,72.61,2c4.37-1.28-7-29.12-11.68-30.48-3.9-1.13-25.73,4.9-26.13,3.63-.46-1.43,4.35-10.67,12.09-27.55C108.86,328.68,99.92,334,94,338.6Z" style="fill: rgb(173, 99, 89); transform-origin: 89.2896px 370.561px;" class="animable" id="elo3uirnlohhd"></path></g><g id="el3dy39a6lw9i"><path d="M134.52,368.73c9.75.2,12.22,1.75,20.54-2.44,5.45-2.75,9.55-.45,5.86,4.73-6,8.46-18.67,10.83-23.29,10.39Z" style="fill: rgb(173, 99, 89); transform-origin: 148.426px 373.289px;" class="animable" id="el0jjw4bpxvfyf"></path></g><g id="elqdt1zf25l"><path d="M107.73,373.82s11.66-4.22,22.07-5c7.2-.56,23,0,35.34,17.63,2.93,4.18,4.13,12.23-3.14,7.13-5.16-3.63-7.34-7.49-10.72-9.05,0,0,.31,10.42-4,13.19a93.2,93.2,0,0,1-11.78,6.43,21.49,21.49,0,0,1-1.4-2.09s-4.27,2.21-11.34.37Z" style="fill: rgb(173, 99, 89); transform-origin: 137.58px 386.422px;" class="animable" id="elv2hjtdd6bls"></path></g><g id="el2tcevr2qpme"><path d="M136.75,369.36c3,2.26,9.39,7.16,13.19,13,4.22,6.46,10.61,20,5.81,23.1-3.52,2.25-6.41-2.72-6.41-2.72s1.46,6.17-2.17,7.51c-3.3,1.22-5.31-2.76-5.31-2.76s.24,3.89-3.16,4.45c-4.1.68-3.93-7.59-8.67-10.5C129,400.76,136.75,369.36,136.75,369.36Z" style="fill: rgb(173, 99, 89); transform-origin: 143.698px 390.67px;" class="animable" id="elnf0fjsd1ck8"></path></g><g id="elgj8amvownqk"><path d="M142.37,385.66a30.67,30.67,0,0,1,7,16.91c0,.16-.1.25-.14.11a75.74,75.74,0,0,0-7-17S142.34,385.63,142.37,385.66Z" style="fill: rgb(38, 50, 56); transform-origin: 145.8px 394.2px;" class="animable" id="el3dws2rvjr8t"></path></g><g id="els56z5a4tyd"><path d="M136,390.11c1.93,2.46,5.89,10.22,6,17.3,0,.16-.12.25-.15.1a80.65,80.65,0,0,0-5.94-17.37S136,390.07,136,390.11Z" style="fill: rgb(38, 50, 56); transform-origin: 138.955px 398.842px;" class="animable" id="eljbx2vyyensh"></path></g><g id="elgd3g206rhg"><path d="M151.29,384.45c3,1.41,4.73,3.26,7.06,5.51a41.5,41.5,0,0,0,3.59,3.17c1.16.89,2.86,2.23,4.38,1.37a2.58,2.58,0,0,0,1-2.44,12.59,12.59,0,0,0-1.14-3.81c0-.05.06-.09.08,0a17.93,17.93,0,0,1,1.36,3.45,4.17,4.17,0,0,1-.11,2.47c-.73,1.63-2.79,1.53-4.14.83a14,14,0,0,1-2.26-1.57q-1-.84-2-1.74c-1.31-1.24-2.56-2.55-3.86-3.8a40,40,0,0,0-4-3.3A.06.06,0,0,1,151.29,384.45Z" style="fill: rgb(38, 50, 56); transform-origin: 159.477px 389.964px;" class="animable" id="elgpe2nfxvpg4"></path></g><g id="elmorzxh8r12r"><path d="M156,396.43a98.52,98.52,0,0,0-4.82-11.92c0-.05,0-.09.08-.05,2.05,2.69,5,9.41,5.55,11.51s1.22,4.71.87,6.86c-.52,3.24-2.77,3.51-3.59,3.54a4.29,4.29,0,0,1-2.69-.89,8.71,8.71,0,0,1-2.13-2.76c0-.05,0-.1.08-.05.92,1.46,2.58,3,4.38,3.07a2.94,2.94,0,0,0,2.18-.76,3.81,3.81,0,0,0,.94-2.53A17.63,17.63,0,0,0,156,396.43Z" style="fill: rgb(38, 50, 56); transform-origin: 153.523px 395.407px;" class="animable" id="elw1w3p56uglb"></path></g><g id="elpdji855hvpe"><path d="M107.72,372.42,118,407.69s-63.12,3.87-66.67-7.58S78.14,351,90.75,340.6c14.61-12,15.42-7,10.7,5C96.5,358.12,88,376,88,376Z" style="fill: #BA68C8; transform-origin: 84.5217px 371.02px;" class="animable" id="el9ld2e1pu9dt"></path></g><g id="el38g37r870j5"><path d="M68.05,381.77A71.8,71.8,0,0,1,77.78,378a70.38,70.38,0,0,1,10.06-2.27c1.94-.31,3.89-.53,5.84-.76.06,0,.06.09,0,.1a90.28,90.28,0,0,0-10.15,2.17q-5,1.32-9.91,2.83c-1.86.57-3.69,1.22-5.53,1.85A.07.07,0,0,1,68.05,381.77Z" style="fill: rgb(38, 50, 56); transform-origin: 80.8587px 378.446px;" class="animable" id="elknacixf9atq"></path></g><g id="el6m22hgoycih"><path d="M107.57,372.3c-.32,0-17.86,2.85-18.45,3,.11-.24,4.53-8.61,5.18-9.84.07-.12.13-.24.19-.37.4-.53.8-1.05,1.17-1.6l1.44-2.1s0,0,0,0l-1.53,2c-.23.31-.45.64-.67,1,.44-.87.87-1.74,1.3-2.62.68-1.4,1.32-2.82,2-4.24,0,0,0-.07-.07,0-1.3,2.44-2.68,4.84-4,7.28s-6.26,11.39-6.23,11.39,19.39-3.52,19.76-3.61C107.75,372.5,107.73,372.28,107.57,372.3Z" style="fill: rgb(38, 50, 56); transform-origin: 97.8066px 366.849px;" class="animable" id="el2sjrq9mux4a"></path></g><g id="el7x0u0yl7no3"><path d="M105.25,393.85c-1.12-3.93-2.22-7.87-3.49-11.77-.72-2.21-1.43-4.42-2.17-6.63,0-.08-.18,0-.16,0,1,4,2,8,3.12,11.94s2.26,7.87,3.47,11.78c.68,2.23,1.43,4.42,2.24,6.6a0,0,0,0,0,.08,0C107.5,401.76,106.39,397.81,105.25,393.85Z" style="fill: rgb(38, 50, 56); transform-origin: 103.884px 390.592px;" class="animable" id="el8nvjtqelwh8"></path></g><g id="elww5239mgr8j"><path d="M118.72,408.33c-.45-1.11-1-2.68-1.48-3.77-.13-.29-.34-.27-.24,0,.31,1,.53,2.08.84,3.09-.88,0-1.76.05-2.65.09l-3.06.15q-3,.12-6,.2-6.07.13-12.16,0a235.3,235.3,0,0,1-24.32-1.61c-2.26-.28-4.51-.6-6.75-1a63.8,63.8,0,0,1-6.57-1.38c-.06,0-.09.08,0,.1a37.25,37.25,0,0,0,5.64,1.68q3,.65,6.08,1.1c4.06.61,8.14,1,12.24,1.28q12.17.82,24.38.63c2.28,0,4.56-.1,6.83-.18,1.15-.05,2.3-.09,3.45-.16S118.8,408.52,118.72,408.33Z" style="fill: rgb(38, 50, 56); transform-origin: 87.4975px 406.513px;" class="animable" id="elbhvqhcpz23t"></path></g><g id="elv7nfa568wv"><rect x="123.12" y="412.78" width="80.78" height="3.26" style="fill: rgb(69, 90, 100); transform-origin: 163.51px 414.41px; transform: rotate(-0.25deg);" class="animable" id="el7u1ujyczvrd"></rect></g><g id="el31vjfo6ao8t"><rect x="123.12" y="412.86" width="44.7" height="3.26" style="fill: rgb(166, 166, 166); transform-origin: 145.47px 414.49px; transform: rotate(-0.25deg);" class="animable" id="elywxtmlo01u"></rect></g><polygon points="116.9 381.35 187.71 381.05 197.5 332.92 126.7 333.22 116.9 381.35" style="fill: rgb(166, 166, 166); transform-origin: 157.2px 357.135px;" id="el5eh8glot7um" class="animable"></polygon><polygon points="120.11 381.34 190.92 381.03 200.71 332.9 129.91 333.21 120.11 381.34" style="fill: rgb(199, 199, 199); transform-origin: 160.41px 357.12px;" id="el8c3gv6fdma" class="animable"></polygon><g id="el2bc7fgndmes"><path d="M205.27,392.89a4.17,4.17,0,0,0,4.24,4.7,5.37,5.37,0,0,0,5.2-4.74,4.17,4.17,0,0,0-4.24-4.7A5.37,5.37,0,0,0,205.27,392.89Z" style="fill: rgb(235, 235, 235); transform-origin: 209.99px 392.87px;" class="animable" id="elo6ob62x1i1"></path></g><g id="el3b01lezapcn"><path d="M112.3,349.23s-13.32-10-20.94-8.73l-5.73,6.62s-2,1-2.88-.29c-2.06-3.12-3.45-11.16,2.81-17.31,5.73-5.64,16.19-6.65,25.18-5.5,8.64,1.1,16.61,5.69,14.76,11.47S112.3,349.23,112.3,349.23Z" style="fill: #BA68C8; transform-origin: 103.391px 336.415px;" class="animable" id="el4jeocjaxy9f"></path></g><g id="eleemxkz49c4o"><path d="M112.8,346.56s8.67-8.09,9.13-12.28-8.17-7-13.61-7.82c-8.42-1.28-13.87,0-17.85,4.89S112.8,346.56,112.8,346.56Z" style="opacity: 0.1; transform-origin: 106.004px 336.278px;" class="animable" id="elvyiv8hjik7"></path></g><g id="eleus8q8egrxa"><path d="M113.41,344.46c-3,.74-10.35-3.65-13.73-7.9-.23-.3-.32-3.78-.63-8-.2-2.56-.48-5.41-.92-8L115,321.72a41.74,41.74,0,0,0,.14,10.17,5.27,5.27,0,0,0,.3,1,1.54,1.54,0,0,0,0,.17C116.15,335.06,118.08,343.32,113.41,344.46Z" style="fill: rgb(173, 99, 89); transform-origin: 107.286px 332.551px;" class="animable" id="el3k8e0g3qt6"></path></g><g id="elrxphmnpmura"><path d="M115.42,332.94a.47.47,0,0,1,.06.17,10.32,10.32,0,0,1-1.65.37c-9.24,1.37-13.42-9.45-14.48-12.83L115,321.71a42.22,42.22,0,0,0,.13,10.19A7.89,7.89,0,0,0,115.42,332.94Z" style="fill: rgb(38, 50, 56); transform-origin: 107.415px 327.125px;" class="animable" id="elrro8p7tl9r"></path></g><g id="elqnvqwft555"><path d="M91,304.43c0,6.09,8,21.23,13.07,23.57,7.36,3.4,16.89,1,19.15-7.31,2.18-8-8.54-27.56-14-29.43C101.24,288.5,90.93,295.44,91,304.43Z" style="fill: rgb(173, 99, 89); transform-origin: 107.254px 310.069px;" class="animable" id="elac23d4ldx2a"></path></g><g id="elehxgqoq53gd"><path d="M106.68,309c.4-.34.71-.72,1.07-1.09a2.38,2.38,0,0,0,.88-1.32.79.79,0,0,0-.53-.8,2,2,0,0,0-1.85.68,2.82,2.82,0,0,0-.94,1.84A.84.84,0,0,0,106.68,309Z" style="fill: rgb(38, 50, 56); transform-origin: 106.97px 307.476px;" class="animable" id="el4n5yop0tv1f"></path></g><g id="ely6ezker1rwr"><path d="M117.19,304a15.11,15.11,0,0,1-1.49.3,2.48,2.48,0,0,1-1.59,0,.81.81,0,0,1-.38-.89,2,2,0,0,1,1.59-1.17,2.81,2.81,0,0,1,2.05.22A.84.84,0,0,1,117.19,304Z" style="fill: rgb(38, 50, 56); transform-origin: 115.753px 303.285px;" class="animable" id="elzhgbelgea5k"></path></g><g id="elsi0nmtngu5"><path d="M113.27,320.69a1.69,1.69,0,0,0,1.16.18,2.94,2.94,0,0,0,1-.8s.08,0,.07,0a1.52,1.52,0,0,1-1,1.2,1.21,1.21,0,0,1-1.26-.52S113.21,320.67,113.27,320.69Z" style="fill: rgb(38, 50, 56); transform-origin: 114.367px 320.683px;" class="animable" id="ello61ndilkn"></path></g><g id="el7nbkno731na"><path d="M112.85,317.06a3.89,3.89,0,0,0,3.11.42,4.41,4.41,0,0,0,1.3-.56l.23-.14.21-.15a.29.29,0,0,0,.1-.33h0l-.06-.1h0l0-.09c-.37-.8-1-2-1-2,.36,0,2.17-.05,1.94-.45a58.63,58.63,0,0,0-6.55-10c-.08-.1-.25,0-.18.11,1.68,3.3,3.93,6.27,5.67,9.55a7,7,0,0,0-1.91.3c-.09.09,1.33,2.25,1.47,2.63a.06.06,0,0,1,0,0,5.43,5.43,0,0,1-4.2.64C112.79,316.9,112.74,317,112.85,317.06Z" style="fill: rgb(38, 50, 56); transform-origin: 115.317px 310.626px;" class="animable" id="el4pljk9k8ets"></path></g><g id="elghgmzku1bfg"><path d="M116.59,316.75a4.61,4.61,0,0,1-1,2.11,2.09,2.09,0,0,1-1.11.63c-.93.18-1.32-.56-1.49-1.29a5.31,5.31,0,0,1-.11-1.17A6,6,0,0,0,116.59,316.75Z" style="fill: rgb(38, 50, 56); transform-origin: 114.735px 318.134px;" class="animable" id="el69pr93jd8hi"></path></g><g id="elewmwukdb3dv"><path d="M115.55,318.86a2.09,2.09,0,0,1-1.11.63c-.93.18-1.32-.56-1.49-1.29A2.17,2.17,0,0,1,115.55,318.86Z" style="fill: rgb(255, 154, 187); transform-origin: 114.25px 318.765px;" class="animable" id="elnfq6fmnxua"></path></g><g id="elgb53q5va5eb"><path d="M110.26,310.39s-.06.08,0,.12c.5,1,.9,2.3.11,3.07,0,0,0,.07,0,.05C111.45,313,110.9,311.28,110.26,310.39Z" style="fill: rgb(38, 50, 56); transform-origin: 110.608px 312.012px;" class="animable" id="eljp4vd903chd"></path></g><g id="eldonyu5t74dp"><path d="M108.84,309.71c-1.74.63-.36,4.06,1.25,3.48S110.29,309.19,108.84,309.71Z" style="fill: rgb(38, 50, 56); transform-origin: 109.419px 311.456px;" class="animable" id="els9dvx2a0cn"></path></g><g id="ele64y6ar9t6d"><path d="M116.27,307.49s.1,0,.12.06c.38,1.08,1,2.25,2.11,2.22,0,0,0,.06,0,.07C117.27,310.13,116.46,308.57,116.27,307.49Z" style="fill: rgb(38, 50, 56); transform-origin: 117.385px 308.683px;" class="animable" id="el7slv2894tbo"></path></g><g id="elewwwwrf1en"><path d="M116.78,306c1.66-.8,3.15,2.58,1.61,3.33S115.39,306.68,116.78,306Z" style="fill: rgb(38, 50, 56); transform-origin: 117.629px 307.658px;" class="animable" id="el4q1yjoqygoe"></path></g><g id="elwi65uscm7zc"><path d="M114.76,296.33c-1.21-1.1-2.51-2.17-3.46-2.07s-.17,2.85-2,3.82c-2.45,1.31-5.34-1-8.81.79-4.29,2.19-5.08,6.44-2,13.71,2.8,6.48-.51,9-.51,9s-9.52-12.94-7.64-19.44,10.13-12.72,18.32-11C111.7,291.74,114.76,296.33,114.76,296.33Z" style="fill: rgb(38, 50, 56); transform-origin: 102.427px 306.215px;" class="animable" id="eldk0r1ofh69"></path></g><g id="elm21ah8ii6gh"><path d="M98.51,316.44s-5.33-3.95-7.24-1.88,3.31,8.64,6.4,8.74a2.94,2.94,0,0,0,3.24-2.75Z" style="fill: rgb(173, 99, 89); transform-origin: 95.8852px 318.638px;" class="animable" id="elf2pkq8cmwpv"></path></g><g id="elhcdqodcjs4"><path d="M92.81,316.41s0,.07,0,.08c2.19.13,3.8,1.58,5.13,3.19a1.63,1.63,0,0,0-2.45.35.07.07,0,0,0,.09.09,1.8,1.8,0,0,1,2.09,0,8.71,8.71,0,0,1,1.42,1.22c.15.14.43-.05.3-.23l0,0C98.59,318.57,95.53,315.77,92.81,316.41Z" style="fill: rgb(38, 50, 56); transform-origin: 96.1167px 318.853px;" class="animable" id="elomthf0fkcm9"></path></g><g id="elbyj5gkk6k4i"><path d="M103.94,291a24.56,24.56,0,0,0-7.15.55c-2.61.64-10.21,4.26-11.49,6.56s1.07,9.86,1.43,11,3.36,7.45,6.33,8.11S92,306.71,94.31,301.6,103.94,291,103.94,291Z" style="fill: #BA68C8; transform-origin: 94.4309px 304.094px;" class="animable" id="elm3fsl216cq"></path></g><g id="el0r8juikvyfh"><path d="M103.94,291s-7.31,5.44-9.63,10.56,1.72,16.29-1.25,15.63c-1.31-.3-2.21-1.13-3.31-2.7-.75-3.43-1.37-9,0-13.49,1.28-4.24,5-7.56,9.46-9.88A27.42,27.42,0,0,1,103.94,291Z" style="opacity: 0.1; transform-origin: 96.4393px 304.083px;" class="animable" id="elloaf3ove7a"></path></g><g id="elzspuoxi3ykd"><path d="M96.24,323.56c-.93-3-1-12.1.45-17.85s9.66-12,11-12.39c3.22-1,4.49.22,4.88-.26s-4.13-2.84-5.22-3a11.06,11.06,0,0,0-4.77.59c-1.36.56-9.47,4.63-11.15,9.41s-2.15,16.52-.36,18.8c.43.54,1.4.62,2,1.4.79,1,1.54,2.26,2.2,2.93S96.32,323.83,96.24,323.56Z" style="fill: #BA68C8; transform-origin: 101.262px 306.874px;" class="animable" id="elrz8b8z8mmg"></path></g><g id="eljf13a4tm2zh"><path d="M96.63,303.39a15.85,15.85,0,0,1-2.62-.71,11.28,11.28,0,0,1-2.47-1.2c-.05,0-.12,0-.07.09a9,9,0,0,0,2.4,1.48,7.59,7.59,0,0,0,2.75.52C96.72,303.57,96.73,303.41,96.63,303.39Z" style="fill: rgb(38, 50, 56); transform-origin: 94.0765px 302.525px;" class="animable" id="elw5qygi1mu2s"></path></g><g id="el8ujxvm1qlv7"><path d="M95.07,320.62a6.3,6.3,0,0,0-.55-.48,3.72,3.72,0,0,1-.56-.63,7.13,7.13,0,0,0-.89-1.3,5.15,5.15,0,0,0-1.07-.72,2.07,2.07,0,0,1-1-1c0-.06-.13,0-.1,0,.34.9,1.19,1.3,1.87,1.9a11.19,11.19,0,0,1,1,1.38,2.5,2.5,0,0,0,1.26.94C95.05,320.78,95.13,320.68,95.07,320.62Z" style="fill: rgb(38, 50, 56); transform-origin: 92.9937px 318.599px;" class="animable" id="el14w1sxeyswx"></path></g><g id="el8qotkhf32od"><path d="M94.87,317a12.18,12.18,0,0,1-1.22-.68,9.71,9.71,0,0,1-1.06-.86c-.33-.31-.64-.63-1-.94s-.82-.69-1.18-1.08c0-.05-.11,0-.07.08.38.4.69.87,1.06,1.28a10.61,10.61,0,0,0,1,1,7.21,7.21,0,0,0,1.11.79,3.32,3.32,0,0,0,1.28.48A0,0,0,0,0,94.87,317Z" style="fill: rgb(38, 50, 56); transform-origin: 92.6006px 315.245px;" class="animable" id="elazjy4b16hkb"></path></g><g id="el8v99x1j1u5d"><path d="M94.83,313.73a8.91,8.91,0,0,1-2.31-1.2c-.68-.5-1.34-1-2-1.59,0,0-.12,0-.08.07a10.62,10.62,0,0,0,1.88,1.85,5.45,5.45,0,0,0,1.12.65,6.19,6.19,0,0,0,1.35.33S94.89,313.75,94.83,313.73Z" style="fill: rgb(38, 50, 56); transform-origin: 92.6405px 312.39px;" class="animable" id="elmj3hs75ulu9"></path></g><g id="eluh23rrthsr"><path d="M94.94,310.51a3,3,0,0,1-1.09-.49c-.38-.23-.76-.47-1.13-.72s-.72-.48-1.07-.73a3,3,0,0,1-1-.88c0-.05-.12,0-.09.05a3.13,3.13,0,0,0,.78,1,8.66,8.66,0,0,0,1.11.89,10.74,10.74,0,0,0,1.22.71,2,2,0,0,0,1.21.29A.08.08,0,0,0,94.94,310.51Z" style="fill: rgb(38, 50, 56); transform-origin: 92.7531px 309.153px;" class="animable" id="el4m1ho32zf1s"></path></g><g id="el3atua7s198g"><path d="M94.43,306.68c-.38-.16-.75-.33-1.11-.52s-.72-.4-1.07-.62-.74-.44-1.09-.69c0,0-.11,0-.07.08a8.77,8.77,0,0,0,1,.87,12.21,12.21,0,0,0,1.08.68,9.88,9.88,0,0,0,1.14.54,3.47,3.47,0,0,0,1.22.3.07.07,0,0,0,0-.13A5.81,5.81,0,0,0,94.43,306.68Z" style="fill: rgb(38, 50, 56); transform-origin: 93.3276px 306.085px;" class="animable" id="el8itr8slnta"></path></g><g id="el8re4lue74je"><path d="M98.25,300.84c-.43-.25-.85-.49-1.31-.7a12.16,12.16,0,0,0-1.41-.56,13.75,13.75,0,0,0-2.89-.66c-.06,0-.09.08,0,.1,1.85.66,3.74,1.24,5.59,1.92A.06.06,0,0,0,98.25,300.84Z" style="fill: rgb(38, 50, 56); transform-origin: 95.4261px 299.93px;" class="animable" id="els8v458jsrh"></path></g><g id="elxta03krg4pm"><path d="M99.06,297.63a6.22,6.22,0,0,0-1.36-.57,14.57,14.57,0,0,0-3.08-.44c-.06,0-.09.09,0,.11,1,.21,1.93.41,2.88.68a13.3,13.3,0,0,1,1.39.46c.45.18.85.46,1.29.66,0,0,.08,0,0,0A3.48,3.48,0,0,0,99.06,297.63Z" style="fill: rgb(38, 50, 56); transform-origin: 97.3894px 297.575px;" class="animable" id="elm4imrvo5yff"></path></g><g id="elh89gzwmt1fh"><path d="M101.08,295.52a6.83,6.83,0,0,0-1.29-.59,8,8,0,0,0-2.65-.44c-.06,0-.06.09,0,.1a15.6,15.6,0,0,1,2.6.7c.43.15.84.32,1.26.49a11.48,11.48,0,0,0,1.24.56s.05,0,0-.06A7.06,7.06,0,0,0,101.08,295.52Z" style="fill: rgb(38, 50, 56); transform-origin: 99.6786px 295.415px;" class="animable" id="elk5pvkouy2lb"></path></g><g id="elgt77u4gxupv"><path d="M102.29,293.36c-.41-.13-.82-.24-1.23-.35a3.82,3.82,0,0,0-1.25-.18c-.07,0-.06.08,0,.1.79.25,1.58.52,2.36.78a10.89,10.89,0,0,1,2,1.1s.07,0,0-.05A4,4,0,0,0,102.29,293.36Z" style="fill: rgb(38, 50, 56); transform-origin: 101.981px 293.819px;" class="animable" id="eldfoz37x6yr9"></path></g><g id="elh0uyq4hen1"><path d="M104.33,292a6.63,6.63,0,0,0-2.45-.47c-.06,0-.06.1,0,.11a7.83,7.83,0,0,1,2.31.66,10.63,10.63,0,0,1,2.09,1.21s.08,0,0-.05A5.56,5.56,0,0,0,104.33,292Z" style="fill: rgb(38, 50, 56); transform-origin: 104.075px 292.52px;" class="animable" id="el78p18rwmmxc"></path></g><g id="elermikmgll9"><path d="M107.74,292.24a4.58,4.58,0,0,0-.42-.35,5.49,5.49,0,0,0-1-.55,11.05,11.05,0,0,0-2.17-.65.05.05,0,1,0,0,.1,9.7,9.7,0,0,1,2.08.73,7.24,7.24,0,0,1,.93.54c.15.1.29.21.43.32a2.08,2.08,0,0,0,.4.32s.09,0,.07-.06A1.26,1.26,0,0,0,107.74,292.24Z" style="fill: rgb(38, 50, 56); transform-origin: 106.081px 291.695px;" class="animable" id="eljobfcjai859"></path></g><g id="elq5xk6jru32t"><path d="M109.58,291.72a7.9,7.9,0,0,0-.8-.46,6.2,6.2,0,0,0-.84-.35l-.88-.31a.05.05,0,1,0,0,.1,4.78,4.78,0,0,1,.87.38l.79.4.79.41a7.67,7.67,0,0,0,.8.43,0,0,0,0,0,0-.07A3.85,3.85,0,0,0,109.58,291.72Z" style="fill: rgb(38, 50, 56); transform-origin: 108.66px 291.46px;" class="animable" id="elgt62jxz3f4n"></path></g><g id="elu0lnr1k8avj"><path d="M112.8,346.56s-11.57-14.77-23.6-14.81l2.16,8.75s7.06-.91,20.94,8.73Z" style="fill: #BA68C8; transform-origin: 101px 340.49px;" class="animable" id="elau4slv5tnbo"></path></g><g id="elzlgngq1na59"><path d="M88.2,341.08a15.25,15.25,0,0,1,6.45,0,28,28,0,0,1,6.17,1.95,48.32,48.32,0,0,1,5.77,3l2.74,1.74,2.66,1.88.3.21.28-.19a55.25,55.25,0,0,0,5.87-4.68,33,33,0,0,0,2.63-2.66c.82-.95,4.19-5,4.64-7.73-1,2.7-5.81,8.32-7.71,9.89-1,.78-1.94,1.52-2.94,2.24s-2,1.44-3,2.1l.58,0-2.68-1.95c-.92-.61-1.85-1.2-2.79-1.79s-1.93-1.09-2.91-1.59-2-1-3-1.33a25.8,25.8,0,0,0-6.43-1.67c-.54-.08-1.1-.1-1.65-.14s-1.11,0-1.67,0A9.81,9.81,0,0,0,88.2,341.08Z" style="fill: rgb(38, 50, 56); transform-origin: 106.955px 342.23px;" class="animable" id="elqofym2e9gv8"></path></g><g id="elfs6hzt5fmhh"><path d="M85.63,347.12A33.56,33.56,0,0,0,88.7,344a31.19,31.19,0,0,0,2.66-3.49,34.86,34.86,0,0,0-3.07,3.13A33.79,33.79,0,0,0,85.63,347.12Z" style="fill: rgb(38, 50, 56); transform-origin: 88.495px 343.815px;" class="animable" id="ell48nqtwz1xa"></path></g><g id="elndhk25z7ew"><path d="M107.61,344.34a66.31,66.31,0,0,0,.44,11.33c.31,2.62,2.62,11.86,5.48,11.12s-2.72-6.14-4.24-11-.7-8.64-.94-11.63Z" style="fill: #BA68C8; transform-origin: 110.935px 355.496px;" class="animable" id="elc53375wnthe"></path></g><g id="elr0bj32p0pto"><g style="opacity: 0.1; transform-origin: 110.935px 355.496px;" class="animable" id="elc9ybqfe2wls"><g id="elhdilyix7g7"><path d="M107.61,344.34a66.31,66.31,0,0,0,.44,11.33c.31,2.62,2.62,11.86,5.48,11.12s-2.72-6.14-4.24-11-.7-8.64-.94-11.63Z" class="animable" style="transform-origin: 110.935px 355.496px;" id="eldy2q6ay379m"></path></g></g></g><g id="elm8z91kbr51"><path d="M118,343.41A94.07,94.07,0,0,1,121.68,354c.65,2.31,1.9,10.86-.75,11.22s.16-6.09-.24-10.66-2.53-8.42-3.36-11Z" style="fill: #BA68C8; transform-origin: 119.94px 354.322px;" class="animable" id="elh176zplcmkq"></path></g><g id="elscj3df34fe"><g style="opacity: 0.1; transform-origin: 119.94px 354.322px;" class="animable" id="elmntf1ry71s9"><g id="elgmmsgqxpss7"><path d="M118,343.41A94.07,94.07,0,0,1,121.68,354c.65,2.31,1.9,10.86-.75,11.22s.16-6.09-.24-10.66-2.53-8.42-3.36-11Z" class="animable" style="transform-origin: 119.94px 354.322px;" id="elx9y1wuv5lb"></path></g></g></g></g><defs>     <filter id="active" height="200%">         <feMorphology in="SourceAlpha" result="DILATED" operator="dilate" radius="2"></feMorphology>                <feFlood flood-color="#32DFEC" flood-opacity="1" result="PINK"></feFlood>        <feComposite in="PINK" in2="DILATED" operator="in" result="OUTLINE"></feComposite>        <feMerge>            <feMergeNode in="OUTLINE"></feMergeNode>            <feMergeNode in="SourceGraphic"></feMergeNode>        </feMerge>    </filter>    <filter id="hover" height="200%">        <feMorphology in="SourceAlpha" result="DILATED" operator="dilate" radius="2"></feMorphology>                <feFlood flood-color="#ff0000" flood-opacity="0.5" result="PINK"></feFlood>        <feComposite in="PINK" in2="DILATED" operator="in" result="OUTLINE"></feComposite>        <feMerge>            <feMergeNode in="OUTLINE"></feMergeNode>            <feMergeNode in="SourceGraphic"></feMergeNode>        </feMerge>            <feColorMatrix type="matrix" values="0   0   0   0   0                0   1   0   0   0                0   0   0   0   0                0   0   0   1   0 "></feColorMatrix>    </filter></defs></svg>